<svg width="55" height="59" viewBox="0 0 55 59" fill="none" xmlns="http://www.w3.org/2000/svg">
<path d="M39.7569 33.0491C40.2025 32.7063 40.6816 32.7907 41.135 32.8507C41.9321 32.9563 42.72 32.9079 43.5063 32.7943C44.3115 32.6779 44.9639 31.9449 45.1321 31.0041C43.471 31.3132 41.7898 31.2579 40.1146 31.3178C39.6177 31.3355 39.4413 31.1471 39.4043 30.6786C39.3651 30.1821 39.2897 29.6839 39.1767 29.1989C39.0748 28.7615 39.234 28.6584 39.6404 28.6546C41.1408 28.6407 42.6411 28.6012 44.1414 28.5726C44.3831 28.568 44.6191 28.5415 44.8584 28.4935C45.4248 28.3799 45.7742 28.0663 45.7706 27.4821C45.7653 26.6161 46.11 25.9552 46.811 25.4631C46.8616 25.4276 46.8884 25.358 46.9566 25.2611C45.8431 24.3978 44.8212 23.4521 43.649 22.6879C41.8626 21.5232 41.8503 21.5179 41.2898 19.49C41.0907 18.7694 40.7263 18.332 39.9776 18.1426C38.9922 17.8933 38.0291 17.5595 36.9986 17.5322C36.6315 17.5225 36.4479 17.3216 36.3951 16.9555C35.9597 13.9413 33.0428 10.9997 28.7636 11.4578C26.3827 11.7126 24.0673 12.2163 21.8841 13.2255C18.3687 14.8506 15.5368 17.2211 13.7754 20.7361C13.5374 21.2111 13.3624 21.7176 13.1134 22.3175C13.441 22.1882 13.6161 22.0185 13.7918 21.8461C15.0721 20.5901 16.3219 19.3006 17.7448 18.1992C19.4098 16.9103 21.1895 15.8455 23.2799 15.3913C23.5018 15.3431 23.7224 15.3041 23.946 15.3473C24.2493 15.4061 24.4435 15.5687 24.444 15.9067C24.4447 16.3737 24.4117 16.837 24.3128 17.2941C24.2084 17.7758 23.7972 17.8695 23.4154 17.9593C21.5691 18.3936 20.0395 19.415 18.5713 20.5479C17.3497 21.4905 16.3121 22.6213 15.3343 23.8065C14.7282 24.541 13.9746 25.0785 13.1271 25.4804C12.8 25.6355 12.6149 25.8466 12.4907 26.1717C12.1674 27.0181 12.1041 27.9191 11.9118 28.7926C11.8253 29.1857 11.7085 29.5635 11.4236 29.8594C11.12 30.1749 10.8005 30.4776 10.3001 30.3234C9.78706 30.1653 9.39884 29.6786 9.36162 29.1393C9.3149 28.4621 9.427 27.799 9.56064 27.1395C9.95715 25.1828 10.2964 23.215 10.9985 21.3302C12.2875 17.8703 14.5158 15.1557 17.5 13.0301C20.0098 11.2423 22.8105 10.1069 25.7996 9.42511C28.1703 8.88435 30.5415 8.77666 32.8969 9.55303C34.8479 10.1961 36.3268 11.4352 37.4475 13.1209C37.8181 13.6784 38.1898 14.2466 38.387 14.8988C38.4592 15.1376 38.633 15.1839 38.8456 15.2439C39.6586 15.4737 40.4688 15.7159 41.2712 15.98C42.736 16.4621 43.6201 17.4473 43.785 19.0054C43.853 19.648 44.1271 20.0776 44.6863 20.4586C46.1535 21.4581 47.564 22.5412 48.9863 23.6053C49.8786 24.2729 50.0093 24.7437 49.6261 25.7936C49.4239 26.3477 49.1583 26.8834 48.7474 27.3048C48.1147 27.9536 47.867 28.6849 47.9283 29.5933C48.0091 30.7885 47.7364 31.9263 47.0578 32.9376C46.0136 34.4939 44.6085 35.4381 42.6782 35.4434C41.7472 35.446 40.8153 35.4779 39.8848 35.3931C39.4495 35.3534 39.284 35.1363 39.3196 34.713C39.3674 34.1448 39.3982 33.5755 39.7569 33.0491Z" fill="white"/>
<path d="M37.8089 31.4969C37.8375 33.9124 37.4087 36.2066 36.6897 38.4472C36.2659 39.7676 35.4745 40.9158 34.8266 42.1291C34.0221 43.6357 32.9658 44.9872 32.0838 46.4477C31.8428 46.8469 31.5381 47.2067 31.1011 47.415C30.4835 47.7095 29.9345 47.5227 29.7211 46.8799C29.4302 46.0041 29.4652 45.1775 30.1306 44.4181C32.0098 42.2733 33.5267 39.8837 34.4845 37.1994C35.0999 35.4748 35.2761 33.6411 35.1637 31.798C35.1556 31.6641 35.122 31.5317 35.1019 31.4091C34.8574 31.3037 34.7132 31.4664 34.5631 31.5592C32.6658 32.7323 31.205 34.3216 29.9828 36.1807C28.1117 39.0269 27.4986 42.1885 27.4402 45.5136C27.4163 46.8757 27.4614 48.2344 27.6384 49.5868C27.654 49.7058 27.6495 49.8278 27.6506 49.9484C27.6571 50.7186 27.2546 51.2874 26.6477 51.3672C26.025 51.4492 25.3391 50.9475 25.1852 50.232C24.9962 49.3537 24.983 48.4501 24.9562 47.5579C24.8826 45.1076 24.9672 42.6606 25.6163 40.2779C26.5564 36.8268 28.3665 33.8635 30.845 31.3076C31.8477 30.2736 33.0486 29.4867 34.3432 28.8516C34.9695 28.5443 35.6448 28.3905 36.3295 28.3029C37.1902 28.1927 37.5307 28.4978 37.5997 29.3431C37.6571 30.0452 37.7381 30.7453 37.8089 31.4969Z" fill="white"/>
<path d="M35.9484 2.89151C40.4558 3.89482 44.332 5.99987 47.7245 9.0464C51.5474 12.4795 54.0827 16.7169 55.6258 21.5758C55.9378 22.5583 56.2145 23.5567 56.3512 24.5875C56.403 24.9786 56.3386 25.2007 55.8931 25.1608C55.3277 25.1102 54.807 25.2628 54.2865 25.5937C53.9958 24.5911 53.726 23.6545 53.4528 22.719C52.3468 18.933 50.466 15.579 47.8216 12.6525C45.2447 9.8005 42.1703 7.66312 38.5838 6.27271C37.4728 5.84201 36.3159 5.5619 35.152 5.31012C34.3136 5.12875 34.2523 5.01442 34.4697 4.1751C34.5171 3.99199 34.5741 3.81098 34.635 3.63181C34.9442 2.72223 34.9452 2.72256 35.9484 2.89151Z" fill="white"/>
<path d="M5.05382 24.8742C5.01538 25.0867 4.98833 25.2566 4.94834 25.4235C4.93773 25.4678 4.88731 25.5026 4.80004 25.6088C4.27552 25.1487 3.62626 25.1313 2.96616 25.1469C2.56617 25.1563 2.64558 24.8698 2.69084 24.6359C3.041 22.8257 3.40822 21.0197 4.13585 19.3118C5.45094 16.2249 7.18468 13.3994 9.49479 10.9562C12.3291 7.95846 15.6698 5.67934 19.4864 4.10119C20.8436 3.53996 22.2259 3.06598 23.6787 2.80965C24.0407 2.74577 24.2306 2.81017 24.2896 3.20121C24.3459 3.57397 24.4581 3.93809 24.5411 4.30705C24.6915 4.97544 24.6478 5.07931 23.9721 5.2508C22.6849 5.57752 21.399 5.8996 20.1682 6.41327C17.0099 7.73143 14.2213 9.57953 11.8151 12.0282C8.56507 15.3354 6.4697 19.2665 5.29475 23.7185C5.1982 24.0843 5.13765 24.4596 5.05382 24.8742Z" fill="white"/>
<path d="M3.73658 38.7012C3.39987 37.7165 3.15855 36.7474 2.92052 35.7772C2.8274 35.3976 2.85585 35.16 3.34919 35.1263C3.79127 35.0961 4.23767 34.98 4.61834 34.7212C4.97096 34.4815 5.0906 34.6524 5.18253 34.9867C5.47476 36.0494 5.76408 37.1129 6.16288 38.1438C8.01035 42.9195 11.0007 46.8227 15.1641 49.8015C17.7846 51.6764 20.6782 52.9871 23.8294 53.7144C24.157 53.79 24.5271 53.701 24.8307 53.9484C24.8136 54.2735 24.5835 54.5101 24.4861 54.7986C24.3753 55.1269 24.2444 55.4499 24.275 55.8015C24.3123 56.2307 24.1598 56.348 23.733 56.2467C22.4558 55.9434 21.191 55.5988 19.9695 55.1191C14.7405 53.0654 10.4932 49.7623 7.22886 45.1802C5.79816 43.1719 4.64889 41.027 3.73658 38.7012Z" fill="white"/>
<path d="M50.2364 43.2239C51.8623 40.7515 53.0542 38.126 53.7436 35.2841C53.8601 34.8035 54.0259 34.6881 54.4831 34.9101C54.8196 35.0735 55.1974 35.1668 55.5666 35.2449C56.1887 35.3764 56.2371 35.4298 56.1017 36.0246C55.6785 37.8832 54.9937 39.6497 54.1298 41.3401C52.5893 44.3545 50.6485 47.0804 48.1945 49.4354C45.8761 51.6604 43.2205 53.3586 40.2873 54.6452C38.7519 55.3186 37.1906 55.9058 35.5351 56.2229C34.8261 56.3587 34.7842 56.3455 34.6903 55.6272C34.6458 55.2872 34.5911 54.9399 34.475 54.6198C34.3044 54.1492 34.4796 53.9794 34.9281 53.885C36.4347 53.5678 37.88 53.0576 39.295 52.454C42.5526 51.0644 45.3401 49.0243 47.7463 46.4377C48.6668 45.4482 49.4886 44.3903 50.2364 43.2239Z" fill="white"/>
<path d="M23.7648 32.4074C25.9307 29.0797 28.8129 26.6434 32.3916 25.0227C32.9416 24.7736 33.5029 24.6901 33.9798 25.1587C34.3527 25.525 34.4603 25.9874 34.275 26.4923C34.1118 26.9372 33.7237 27.1594 33.3301 27.3233C30.9153 28.3283 28.8491 29.8139 27.114 31.7639C26.0085 33.0062 25.1247 34.393 24.3738 35.8761C23.354 37.8907 22.9024 40.063 22.6033 42.2636C22.3454 44.1606 22.4492 46.0822 22.463 47.9945C22.4653 48.3219 22.4785 48.6496 22.4699 48.9768C22.4471 49.8453 21.6951 50.3007 20.9149 49.9224C20.3422 49.6447 20.0765 49.1571 20.0562 48.549C19.9658 45.8425 19.9881 43.1439 20.4706 40.4625C20.9944 37.5509 22.1059 34.8906 23.7648 32.4074Z" fill="white"/>
<path d="M23.4443 28.8734C20.412 32.0442 18.5715 35.78 17.8383 40.0516C17.5523 41.7181 17.5479 43.4137 17.5781 45.1042C17.5824 45.3452 17.5871 45.5885 17.5609 45.8274C17.4943 46.436 17.001 46.8084 16.3995 46.7216C15.673 46.6169 15.2127 46.0809 15.1698 45.3529C14.9034 40.8363 15.8943 36.5989 17.9307 32.5745C19.5855 29.3045 21.899 26.622 24.9216 24.5532C26.1403 23.7191 27.5104 23.1823 28.8754 22.6478C29.5418 22.3868 29.7924 22.5487 29.9675 23.2401C30.2615 24.4011 30.1104 24.7699 29.009 25.2771C26.9916 26.2062 25.0855 27.2995 23.4443 28.8734Z" fill="white"/>
<path d="M13.8522 29.5396C15.3841 26.6567 17.4968 24.3146 20.0365 22.3562C21.5589 21.1821 23.2048 20.2145 25.1076 19.7545C25.4782 19.6649 25.7369 19.7212 25.9637 20.0241C26.1493 20.2719 26.3754 20.4895 26.5595 20.7383C26.9277 21.2359 26.8232 21.6056 26.2261 21.8073C25.1955 22.1554 24.1824 22.5269 23.2379 23.0844C20.2147 24.8688 17.8425 27.2805 16.0973 30.3239C15.1418 31.9903 14.3208 33.7124 13.8497 35.5777C13.5887 36.6113 13.431 37.6694 13.4196 38.7427C13.4147 39.1954 13.3531 39.6323 13.08 40.0201C12.7117 40.543 12.2529 40.6515 11.6937 40.3264C11.0093 39.9285 10.6936 39.1281 10.8445 38.1595C11.3189 35.116 12.2904 32.2448 13.8522 29.5396Z" fill="white"/>
<path d="M29.91 0.00309549C31.6525 0.390113 32.5464 1.49961 32.4825 3.14627C32.4266 4.58966 30.7776 6.13109 29.4514 5.97977C27.5205 5.75946 26.2791 4.2657 26.5888 2.53517C26.8897 0.852931 28.0692 -0.0603216 29.91 0.00309549Z" fill="white"/>
<path d="M31.7184 57.7302C30.5136 58.8659 29.0302 58.9461 27.7003 57.9728C26.622 57.1838 26.2459 55.6051 26.8369 54.3485C27.3804 53.1928 28.9089 52.4897 30.2495 52.7786C31.5511 53.059 32.4467 54.1717 32.4889 55.5191C32.5148 56.3479 32.3147 57.0849 31.7184 57.7302Z" fill="white"/>
<path d="M52.9269 30.2138C53.0134 28.765 53.7585 27.8901 55.1281 27.4374C56.3243 27.042 57.7005 27.7134 58.3293 28.5733C58.9773 29.4593 58.953 31.045 58.2769 31.9875C57.5335 33.0237 56.2981 33.4326 55.0222 33.0646C53.72 32.6891 53.0167 31.7479 52.9269 30.2138Z" fill="white"/>
<path d="M4.37481 32.8111C3.19908 33.4235 2.08111 33.3659 1.09594 32.5496C0.159383 31.7736 -0.206082 30.716 0.113063 29.525C0.429811 28.343 1.25523 27.6015 2.44757 27.3522C3.6326 27.1045 4.5793 27.6007 5.31378 28.5044C6.04086 29.399 6.08151 30.3944 5.60963 31.418C5.34645 31.9889 5.00451 32.5053 4.37481 32.8111Z" fill="white"/>
<path d="M31.2681 13.5268C32.5753 13.8482 33.4063 14.6692 33.9729 15.801C33.996 15.8472 34.0243 15.8918 34.0407 15.9403C34.2036 16.4234 34.3094 16.9192 34.0084 17.3767C33.8318 17.6451 32.764 17.7886 32.3794 17.6194C32.0222 17.4624 31.9084 17.0852 31.7136 16.7883C31.361 16.2511 30.9057 15.898 30.2395 15.8863C29.2122 15.8684 28.7395 16.6419 29.2318 17.5294C29.7204 18.4103 29.656 19.0339 29.0442 19.345C28.4391 19.6527 27.2758 19.3286 26.9063 18.7494C25.8468 17.0884 26.677 14.5164 28.5047 13.7757C29.3889 13.4173 30.2865 13.2568 31.2681 13.5268Z" fill="white"/>
<path d="M38.6584 19.7905C39.768 19.9144 40.4513 21.3769 39.753 22.3813C39.3366 22.9803 38.6986 23.2865 38.0291 23.1338C37.4398 22.9994 36.8915 22.3743 36.8073 21.741C36.713 21.0323 37.0927 20.2937 37.7203 19.9751C38.0007 19.8328 38.2965 19.7508 38.6584 19.7905Z" fill="white"/>
<path d="M45.7392 26.6504C45.8592 26.7531 46.0384 26.7451 46.1488 26.6321L48.0406 24.6953C48.2307 24.5007 48.0844 24.1739 47.8126 24.186L43.8635 24.3625C43.5917 24.3746 43.4751 24.7132 43.6819 24.8901L45.7392 26.6504Z" fill="white"/>
</svg>
