<svg width="26" height="25" viewBox="0 0 26 25" fill="none" xmlns="http://www.w3.org/2000/svg">
<path d="M22.6301 13.7115C22.8028 12.3891 22.6913 11.0451 22.303 9.76928C21.9148 8.49345 21.2588 7.31516 20.3788 6.31311C19.4988 5.31107 18.4151 4.50834 17.2002 3.95856C15.9852 3.40878 14.6668 3.12459 13.3333 3.125C10.8468 3.125 8.46228 4.11272 6.70413 5.87087C4.94597 7.62903 3.95825 10.0136 3.95825 12.5C3.95825 14.9864 4.94597 17.371 6.70413 19.1291C8.46228 20.8873 10.8468 21.875 13.3333 21.875M10.2083 10.4167H10.2187M16.4583 10.4167H16.4687" stroke="black" stroke-width="2" stroke-linecap="round" stroke-linejoin="round"/>
<path d="M10.729 15.625C11.4144 16.2917 12.354 16.6667 13.3332 16.6667C14.3123 16.6667 15.2519 16.2917 15.9373 15.625M16.4582 19.7917L18.5415 21.875L22.7082 17.7083" stroke="black" stroke-width="2" stroke-linecap="round" stroke-linejoin="round"/>
</svg>
