<svg width="25" height="25" viewBox="0 0 25 25" fill="none" xmlns="http://www.w3.org/2000/svg">
<path fill-rule="evenodd" clip-rule="evenodd" d="M17.6426 14.9788C17.3203 15.3024 16.9064 15.5193 16.4569 15.6003L11.0995 16.5646C10.7477 16.6283 10.3857 16.6065 10.0441 16.5011C9.70241 16.3957 9.39107 16.2098 9.13624 15.959C8.88142 15.7082 8.69056 15.3999 8.57975 15.0599C8.46893 14.72 8.44139 14.3584 8.49945 14.0056L9.39234 8.57694C9.46813 8.11469 9.68741 7.68799 10.0191 7.35728L17.4105 8.74355e-07H4.4636C3.75318 8.74355e-07 3.07185 0.282212 2.56951 0.78455C2.06716 1.28689 1.78494 1.96821 1.78494 2.67862V18.6057L0.0456016 23.8254C-0.00482277 23.9771 -0.0136134 24.1395 0.0201471 24.2957C0.0539077 24.452 0.128982 24.5962 0.237533 24.7136C0.346085 24.8309 0.484135 24.9169 0.637273 24.9626C0.790411 25.0084 0.953023 25.0122 1.10814 24.9737L8.14408 23.2147H22.3213C23.0318 23.2147 23.7131 22.9325 24.2154 22.4302C24.7178 21.9278 25 21.2465 25 20.5361V7.58942L17.6426 14.9788ZM21.9981 0.137503C21.6702 0.000815374 21.3091 -0.0349852 20.9607 0.0346788C20.6124 0.104343 20.2928 0.276306 20.0427 0.528582L11.596 8.93945L10.7031 14.3681L16.0604 13.4038L24.4714 4.95723C24.6388 4.79123 24.7716 4.59372 24.8623 4.37611C24.953 4.1585 24.9996 3.92509 24.9996 3.68935C24.9996 3.45361 24.953 3.22021 24.8623 3.0026C24.7716 2.78499 24.6388 2.58748 24.4714 2.42147L22.5785 0.528582C22.4129 0.360578 22.2156 0.227052 21.9981 0.135718V0.137503Z" fill="#9C9CA1" fill-opacity="0.7"/>
</svg>
