<svg width="26" height="29" viewBox="0 0 26 29" fill="none" xmlns="http://www.w3.org/2000/svg">
<path d="M7.30027 17.5274V7.82473H2.51734C1.1328 7.82473 0 9.23318 0 10.9546V20.3443C0 22.0657 1.1328 23.4742 2.51734 23.4742H3.776V28.169L7.55201 23.4742H13.8453C15.2299 23.4742 16.3627 22.0657 16.3627 20.3443V17.4961C16.2799 17.5175 16.1955 17.5285 16.111 17.529H7.30027V17.5274ZM22.656 0H11.328C9.94348 0 8.81068 1.40845 8.81068 3.12989V15.6495H17.6214L21.3974 20.3443V15.6495H22.656C24.0406 15.6495 25.1734 14.2426 25.1734 12.5196V3.12989C25.1734 1.40845 24.0406 0 22.656 0Z" fill="#FF7710"/>
</svg>
