<svg width="14" height="14" viewBox="0 0 14 14" fill="none" xmlns="http://www.w3.org/2000/svg">
<path fill-rule="evenodd" clip-rule="evenodd" d="M1.70702 0.29301C1.51842 0.110852 1.26582 0.010058 1.00362 0.0123364C0.741422 0.0146148 0.49061 0.119784 0.305202 0.305192C0.119793 0.4906 0.0146245 0.741412 0.0123461 1.00361C0.0100677 1.26581 0.110862 1.51841 0.29302 1.70701L5.58602 7.00001L0.29302 12.293C0.19751 12.3853 0.121328 12.4956 0.0689187 12.6176C0.0165097 12.7396 -0.0110765 12.8708 -0.0122303 13.0036C-0.0133841 13.1364 0.0119176 13.2681 0.0621985 13.391C0.112479 13.5139 0.186732 13.6255 0.280625 13.7194C0.374518 13.8133 0.48617 13.8876 0.609066 13.9378C0.731962 13.9881 0.863642 14.0134 0.996421 14.0123C1.1292 14.0111 1.26042 13.9835 1.38242 13.9311C1.50443 13.8787 1.61477 13.8025 1.70702 13.707L7.00002 8.41401L12.293 13.707C12.4816 13.8892 12.7342 13.99 12.9964 13.9877C13.2586 13.9854 13.5094 13.8802 13.6948 13.6948C13.8802 13.5094 13.9854 13.2586 13.9877 12.9964C13.99 12.7342 13.8892 12.4816 13.707 12.293L8.41402 7.00001L13.707 1.70701C13.8892 1.51841 13.99 1.26581 13.9877 1.00361C13.9854 0.741412 13.8802 0.4906 13.6948 0.305192C13.5094 0.119784 13.2586 0.0146148 12.9964 0.0123364C12.7342 0.010058 12.4816 0.110852 12.293 0.29301L7.00002 5.58601L1.70702 0.29301Z" fill="#999999"/>
</svg>
