<svg width="16" height="16" viewBox="0 0 16 16" fill="none" xmlns="http://www.w3.org/2000/svg">
<g clip-path="url(#clip0_904_757)">
<path d="M7.33301 2H2.66634C2.31272 2 1.97358 2.14048 1.72353 2.39052C1.47348 2.64057 1.33301 2.97971 1.33301 3.33333V12.6667C1.33301 13.0203 1.47348 13.3594 1.72353 13.6095C1.97358 13.8595 2.31272 14 2.66634 14H11.9997C12.3533 14 12.6924 13.8595 12.9425 13.6095C13.1925 13.3594 13.333 13.0203 13.333 12.6667V8" stroke="#FF7D2C" stroke-width="1.5" stroke-linecap="round" stroke-linejoin="round"/>
<path d="M12.333 1.00015C12.5982 0.734935 12.9579 0.585937 13.333 0.585938C13.7081 0.585938 14.0678 0.734935 14.333 1.00015C14.5982 1.26537 14.7472 1.62508 14.7472 2.00015C14.7472 2.37522 14.5982 2.73493 14.333 3.00015L7.99967 9.33348L5.33301 10.0002L5.99967 7.33348L12.333 1.00015Z" stroke="#FF7D2C" stroke-width="1.5" stroke-linecap="round" stroke-linejoin="round"/>
</g>
<defs>
<clipPath id="clip0_904_757">
<rect width="16" height="16" fill="white"/>
</clipPath>
</defs>
</svg>
