<svg width="186" height="185" viewBox="0 0 186 185" fill="none" xmlns="http://www.w3.org/2000/svg">
<path d="M124.563 106.489C124.955 104.951 126.162 103.596 127.748 103.519C128.455 103.485 129.164 103.594 129.855 103.686C132.358 104.017 134.833 103.865 137.302 103.509V103.509C141.178 102.948 138.266 98.5357 134.352 98.6797C131.787 98.774 129.216 98.7797 126.65 98.8714C125.09 98.9272 124.535 98.3356 124.419 96.8642C124.296 95.3047 124.059 93.7401 123.704 92.2169C123.384 90.8434 123.885 90.5194 125.161 90.5076C129.873 90.464 134.585 90.3397 139.297 90.2499C140.056 90.2354 140.797 90.1525 141.548 90.0017C143.327 89.6447 144.425 88.66 144.413 86.8251C144.397 84.1054 145.479 82.0297 147.681 80.4845V80.4845C148.041 80.2318 147.864 79.638 147.519 79.3652C144.259 76.7886 141.213 74.0263 137.75 71.7686C132.14 68.1108 132.101 68.0942 130.341 61.7253C129.715 59.4622 128.571 58.0884 126.22 57.4937C123.125 56.7108 120.1 55.6626 116.864 55.5768C115.711 55.5462 115.135 54.9152 114.969 53.7656C113.601 44.2992 104.44 35.0608 91.0011 36.4994C83.5238 37.2999 76.252 38.8815 69.3955 42.0512C58.3553 47.155 49.4613 54.5996 43.9296 65.6387C43.5253 66.4455 43.1789 67.2813 42.8223 68.1767C42.4602 69.086 43.2822 69.8102 43.9809 69.1248V69.1248C48.0021 65.1803 51.9271 61.1304 56.3957 57.6714C61.625 53.6235 67.2141 50.2795 73.7793 48.8529C74.4762 48.7015 75.169 48.5791 75.871 48.715C76.8237 48.8994 77.4335 49.4101 77.435 50.4718C77.4372 51.9385 77.3339 53.3932 77.023 54.8288C76.6953 56.3418 75.4039 56.6359 74.2048 56.9179C68.4064 58.2819 63.6024 61.4898 58.9914 65.0477C55.1548 68.0081 51.8963 71.5594 48.8253 75.2815C46.922 77.5883 44.5551 79.2764 41.8936 80.5386C40.8663 81.0258 40.2848 81.6888 39.8949 82.7096C38.8795 85.368 38.6807 88.1975 38.0768 90.9409C37.805 92.1755 37.4383 93.3619 36.5435 94.2914C35.59 95.282 34.5867 96.2327 33.0151 95.7485C31.4038 95.2522 30.1846 93.7234 30.0677 92.0296C29.9209 89.9028 30.273 87.8204 30.6927 85.7492C31.938 79.6041 33.0033 73.4239 35.2086 67.5046C39.2566 56.6384 46.2548 48.1129 55.6268 41.4373C63.5091 35.8228 72.3051 32.2569 81.6924 30.1157C89.138 28.4174 96.5848 28.0792 103.982 30.5174C110.109 32.537 114.754 36.4286 118.274 41.7225C119.438 43.4734 120.605 45.2579 121.224 47.3063C121.451 48.0563 121.997 48.2015 122.665 48.3902C125.218 49.1119 127.762 49.8726 130.282 50.702C134.883 52.2161 137.659 55.3101 138.177 60.2033C138.391 62.2215 139.251 63.5708 141.008 64.7674C145.616 67.9062 150.045 71.3078 154.512 74.6498C157.315 76.7463 157.725 78.225 156.522 81.5224C155.887 83.2626 155.053 84.9451 153.762 86.2683C151.775 88.3061 150.997 90.6026 151.19 93.4557C151.443 97.2091 150.587 100.782 148.456 103.959C145.176 108.846 140.763 111.812 134.701 111.828C131.777 111.836 128.851 111.937 125.928 111.67C124.561 111.546 124.041 110.864 124.153 109.534C124.239 108.512 124.308 107.488 124.563 106.489Z" fill="url(#paint0_linear_1219_39)"/>
<path d="M119.408 99.4337C119.498 107.02 118.152 114.225 115.893 121.262C114.562 125.408 112.077 129.015 110.042 132.825C107.516 137.557 104.198 141.801 101.428 146.388C100.671 147.642 99.7142 148.772 98.3417 149.426C96.4021 150.351 94.6782 149.764 94.0078 147.745C93.0944 144.995 93.2043 142.399 95.2939 140.014C101.196 133.278 105.96 125.773 108.968 117.343C110.901 111.927 111.454 106.168 111.101 100.379V100.379C111.054 99.6098 110.386 98.8717 109.731 99.2792C109.551 99.3914 109.384 99.5247 109.214 99.6295C103.256 103.314 98.6681 108.305 94.8297 114.144C88.9533 123.082 87.0279 133.012 86.8446 143.455C86.7695 147.732 86.9112 151.999 87.4671 156.247C87.516 156.62 87.5019 157.003 87.5052 157.382C87.5257 159.801 86.2616 161.587 84.3556 161.838C82.3999 162.096 80.2457 160.52 79.7623 158.273C79.169 155.515 79.1276 152.677 79.0434 149.875C78.8122 142.179 79.0779 134.494 81.1164 127.011C84.0689 116.173 89.7537 106.866 97.5375 98.8394C100.687 95.5917 104.458 93.1206 108.524 91.1258C110.491 90.1609 112.612 89.678 114.762 89.4027C117.465 89.0566 118.534 90.0149 118.751 92.6696C118.931 94.8744 119.186 97.0732 119.408 99.4337Z" fill="url(#paint1_linear_1219_39)"/>
<path d="M113.566 9.5959C127.722 12.7469 139.895 19.358 150.55 28.9258C162.556 39.7079 170.518 53.0156 175.364 68.2755C176.344 71.3612 177.213 74.4968 177.643 77.7341C177.805 78.9622 177.603 79.6597 176.204 79.5344V79.5344C173.552 79.297 170.418 78.3356 169.677 75.7782C169.296 74.4617 168.919 73.1634 168.54 71.8657C165.067 59.9756 159.16 49.4421 150.855 40.251C142.762 31.2942 133.106 24.5815 121.843 20.2149C118.353 18.8622 114.72 17.9825 111.065 17.1917C108.432 16.6221 108.239 16.2631 108.922 13.6271C109.071 13.0521 109.25 12.4836 109.441 11.9209C110.412 9.06427 110.415 9.06529 113.566 9.5959Z" fill="url(#paint2_linear_1219_39)"/>
<path d="M16.5386 78.6347C16.4179 79.302 16.333 79.8358 16.2073 80.3599V80.3599C16.1117 80.7588 15.4882 80.7127 15.145 80.4879C13.6144 79.4855 11.8116 79.4479 9.98214 79.4911C8.72593 79.5208 8.97535 78.6209 9.11746 77.8863C10.2172 72.2014 11.3705 66.5292 13.6556 61.1654C17.7858 51.4709 23.2308 42.5972 30.4859 34.9239C39.3874 25.5094 49.8789 18.3517 61.8653 13.3953C66.1279 11.6328 70.469 10.1442 75.0315 9.33917C76.1686 9.13853 76.7648 9.3408 76.9502 10.5689C77.1269 11.7396 77.4795 12.8831 77.7401 14.0419C78.2123 16.141 78.0751 16.4672 75.9532 17.0058C71.9105 18.0319 67.872 19.0434 64.0067 20.6566C54.0876 24.7964 45.3299 30.6005 37.7729 38.2907C27.566 48.6774 20.9853 61.0234 17.2953 75.0053C16.9921 76.1541 16.8019 77.3327 16.5386 78.6347Z" fill="url(#paint3_linear_1219_39)"/>
<path d="M12.4014 122.059C11.344 118.967 10.5861 115.924 9.83854 112.876C9.54607 111.684 9.63541 110.938 11.1848 110.832C12.5732 110.737 13.9751 110.373 15.1707 109.56C16.2781 108.807 16.6539 109.344 16.9426 110.394C17.8603 113.731 18.769 117.071 20.0214 120.309C25.8236 135.308 35.215 147.566 48.2904 156.921C56.5205 162.809 65.6082 166.926 75.5048 169.21C75.6275 169.238 75.7521 169.259 75.8781 169.275C77.6871 169.509 78.1503 170.886 77.5672 172.615V172.615C77.2192 173.646 76.8079 174.66 76.9039 175.764C77.0212 177.112 76.5421 177.481 75.2018 177.162C71.1907 176.21 67.2185 175.128 63.3822 173.621C46.9603 167.172 33.6211 156.798 23.3692 142.407C18.876 136.1 15.2666 129.364 12.4014 122.059Z" fill="url(#paint4_linear_1219_39)"/>
<path d="M158.438 136.263C163.545 128.499 167.288 120.253 169.453 111.328C169.819 109.818 170.34 109.456 171.776 110.153C172.832 110.666 174.019 110.959 175.178 111.205C177.132 111.618 177.284 111.785 176.859 113.653C175.53 119.491 173.379 125.038 170.666 130.347C165.828 139.814 159.733 148.375 152.026 155.771C144.744 162.759 136.405 168.092 127.192 172.133C122.37 174.248 117.467 176.092 112.268 177.088C110.041 177.514 109.91 177.473 109.615 175.217C109.475 174.149 109.303 173.059 108.939 172.053C108.403 170.575 108.953 170.042 110.361 169.745C115.093 168.749 119.632 167.147 124.076 165.251C134.307 160.887 143.061 154.48 150.618 146.356C153.509 143.249 156.09 139.926 158.438 136.263Z" fill="url(#paint5_linear_1219_39)"/>
<path d="M75.3023 102.293C82.1044 91.8426 91.1562 84.1911 102.395 79.1009C104.123 78.3186 105.885 78.0565 107.383 79.5281C108.554 80.6786 108.892 82.1309 108.31 83.7164C107.798 85.1138 106.579 85.8116 105.343 86.3261C97.7589 89.4827 91.2698 94.1483 85.8206 100.272C82.3488 104.174 79.5731 108.529 77.2149 113.187C74.0119 119.514 72.5938 126.336 71.6544 133.247C70.8445 139.205 71.1703 145.24 71.2136 151.246C71.221 152.274 71.2624 153.303 71.2354 154.331C71.1639 157.059 68.8022 158.489 66.3517 157.301C64.5532 156.428 63.7188 154.897 63.655 152.987C63.3711 144.487 63.4412 136.012 64.9564 127.591C66.6016 118.447 70.0922 110.092 75.3023 102.293Z" fill="url(#paint6_linear_1219_39)"/>
<path d="M74.2952 91.1948C64.7721 101.153 58.9917 112.885 56.6893 126.301C55.791 131.534 55.7771 136.86 55.8718 142.169C55.8853 142.926 55.9002 143.69 55.8181 144.44C55.6087 146.351 54.0595 147.521 52.1704 147.249C49.8889 146.92 48.4432 145.236 48.3084 142.95C47.472 128.765 50.5837 115.457 56.9794 102.818C62.1764 92.5486 69.442 84.1241 78.9348 77.6268C82.7622 75.0072 87.0652 73.3213 91.3521 71.6427C93.4451 70.8231 94.2321 71.3314 94.782 73.5029C95.7053 77.149 95.2306 78.3073 91.7717 79.9002C85.4358 82.8182 79.4497 86.2517 74.2952 91.1948Z" fill="url(#paint7_linear_1219_39)"/>
<path d="M44.1709 93.287C48.982 84.233 55.6172 76.8775 63.5931 70.7268C68.3745 67.0395 73.5436 64.0007 79.5194 62.556C80.6834 62.2746 81.4958 62.4516 82.2081 63.4028C82.791 64.181 83.501 64.8644 84.0791 65.6457C85.2358 67.2086 84.9075 68.3696 83.0322 69.003C79.7955 70.0962 76.6137 71.2631 73.6476 73.0139C64.153 78.6179 56.7028 86.192 51.2218 95.7502C48.2209 100.983 45.6427 106.392 44.1632 112.25C43.3434 115.496 42.8482 118.819 42.8122 122.19C42.7969 123.612 42.6034 124.984 41.7458 126.202C40.589 127.844 39.1483 128.185 37.3919 127.164C35.2427 125.914 34.251 123.401 34.7251 120.358C36.215 110.8 39.2661 101.783 44.1709 93.287Z" fill="url(#paint8_linear_1219_39)"/>
<path d="M93.216 0.537818C94.1358 0.486768 95.0621 0.604489 95.9399 0.883965C100.53 2.34532 102.864 5.66472 102.681 10.3964C102.505 14.9295 97.3264 19.7705 93.1613 19.2952C87.0972 18.6033 83.1986 13.9121 84.1709 8.47716C85.0383 3.62905 88.229 0.814594 93.216 0.537818Z" fill="url(#paint9_linear_1219_39)"/>
<path d="M100.281 181.822C96.4972 185.388 91.8384 185.64 87.6619 182.584C84.2755 180.106 83.0944 175.147 84.9504 171.201C86.6574 167.572 91.4576 165.363 95.6681 166.271C99.7558 167.152 102.568 170.646 102.701 174.878C102.782 177.481 102.154 179.795 100.281 181.822Z" fill="url(#paint10_linear_1219_39)"/>
<path d="M166.888 95.4043C167.16 90.8542 169.5 88.1065 173.801 86.6847C177.558 85.443 181.88 87.5517 183.855 90.2523C185.89 93.0349 185.814 98.0149 183.69 100.975C181.355 104.229 177.476 105.513 173.469 104.358C169.379 103.178 167.17 100.222 166.888 95.4043Z" fill="url(#paint11_linear_1219_39)"/>
<path d="M14.4063 103.561C10.7138 105.485 7.20274 105.304 4.10873 102.74C1.1674 100.303 0.0196202 96.9814 1.02192 93.241C2.0167 89.5288 4.609 87.2001 8.35365 86.4172C12.0753 85.639 15.0485 87.1974 17.3552 90.0356C19.6387 92.8452 19.7663 95.9712 18.2843 99.1861C17.4578 100.979 16.3839 102.601 14.4063 103.561Z" fill="url(#paint12_linear_1219_39)"/>
<path d="M98.8668 42.9972C102.972 44.0066 105.582 46.5851 107.362 50.1396C107.434 50.2847 107.523 50.4246 107.574 50.5769C108.086 52.0942 108.418 53.6513 107.473 55.0882C106.918 55.9311 103.565 56.3816 102.357 55.8504C101.235 55.3573 100.878 54.1726 100.266 53.2403C99.1586 51.5532 97.7288 50.4441 95.6363 50.4075C92.4102 50.351 90.9255 52.7805 92.4716 55.5677C94.0062 58.3343 93.8038 60.2927 91.8825 61.2697C89.9821 62.236 86.3286 61.2182 85.1683 59.3993C81.8407 54.1827 84.4481 46.105 90.1881 43.7788C92.9652 42.6533 95.784 42.1493 98.8668 42.9972Z" fill="url(#paint13_linear_1219_39)"/>
<path d="M122.077 62.6688C125.562 63.0578 127.708 67.6508 125.515 70.8052C124.207 72.6866 122.203 73.6482 120.101 73.1686C118.25 72.7464 116.528 70.7834 116.263 68.7942C115.967 66.5688 117.16 64.2491 119.131 63.2485C120.012 62.8014 120.941 62.5439 122.077 62.6688Z" fill="url(#paint14_linear_1219_39)"/>
<path d="M143.562 83.569C144.362 84.2539 145.557 84.2006 146.293 83.447L149.671 79.9883C150.939 78.6909 149.963 76.5118 148.151 76.5927L141.099 76.9079C139.287 76.9888 138.51 79.2462 139.888 80.4254L143.562 83.569Z" fill="#FFA259"/>
<ellipse cx="121.31" cy="90.81" rx="5.35725" ry="5.662" fill="#C6E7FF"/>
<path d="M121.31 73.8678L126.536 89.401H116.084L121.31 73.8678Z" fill="#C6E7FF"/>
<defs>
<linearGradient id="paint0_linear_1219_39" x1="93.5964" y1="20.4348" x2="93.5964" y2="111.853" gradientUnits="userSpaceOnUse">
<stop stop-color="#FFE4CA"/>
<stop offset="1" stop-color="#FF7710"/>
</linearGradient>
<linearGradient id="paint1_linear_1219_39" x1="99.1934" y1="82.0627" x2="99.1934" y2="161.866" gradientUnits="userSpaceOnUse">
<stop stop-color="#FFE4CA"/>
<stop offset="1" stop-color="#FF7710"/>
</linearGradient>
<linearGradient id="paint2_linear_1219_39" x1="143.138" y1="2.14853" x2="143.138" y2="80.894" gradientUnits="userSpaceOnUse">
<stop stop-color="#FFE4CA"/>
<stop offset="1" stop-color="#FF7710"/>
</linearGradient>
<linearGradient id="paint3_linear_1219_39" x1="43.4805" y1="2.08611" x2="43.4805" y2="80.9419" gradientUnits="userSpaceOnUse">
<stop stop-color="#FFE4CA"/>
<stop offset="1" stop-color="#FF7710"/>
</linearGradient>
<linearGradient id="paint4_linear_1219_39" x1="44.1779" y1="102.384" x2="44.1779" y2="177.27" gradientUnits="userSpaceOnUse">
<stop stop-color="#FFE4CA"/>
<stop offset="1" stop-color="#FF7710"/>
</linearGradient>
<linearGradient id="paint5_linear_1219_39" x1="142.895" y1="103.046" x2="142.895" y2="177.298" gradientUnits="userSpaceOnUse">
<stop stop-color="#FFE4CA"/>
<stop offset="1" stop-color="#FF7710"/>
</linearGradient>
<linearGradient id="paint6_linear_1219_39" x1="86.0565" y1="70.5221" x2="86.0565" y2="157.722" gradientUnits="userSpaceOnUse">
<stop stop-color="#FFE4CA"/>
<stop offset="1" stop-color="#FF7710"/>
</linearGradient>
<linearGradient id="paint7_linear_1219_39" x1="71.6844" y1="63.6513" x2="71.6844" y2="147.288" gradientUnits="userSpaceOnUse">
<stop stop-color="#FFE4CA"/>
<stop offset="1" stop-color="#FF7710"/>
</linearGradient>
<linearGradient id="paint8_linear_1219_39" x1="59.68" y1="55.8867" x2="59.68" y2="127.741" gradientUnits="userSpaceOnUse">
<stop stop-color="#FFE4CA"/>
<stop offset="1" stop-color="#FF7710"/>
</linearGradient>
<linearGradient id="paint9_linear_1219_39" x1="93.3567" y1="-1.37088" x2="93.3567" y2="19.3276" gradientUnits="userSpaceOnUse">
<stop stop-color="#FFE4CA"/>
<stop offset="1" stop-color="#FF7710"/>
</linearGradient>
<linearGradient id="paint10_linear_1219_39" x1="93.391" y1="164.199" x2="93.391" y2="184.701" gradientUnits="userSpaceOnUse">
<stop stop-color="#FFE4CA"/>
<stop offset="1" stop-color="#FF7710"/>
</linearGradient>
<linearGradient id="paint11_linear_1219_39" x1="176.111" y1="84.4693" x2="176.111" y2="104.775" gradientUnits="userSpaceOnUse">
<stop stop-color="#FFE4CA"/>
<stop offset="1" stop-color="#FF7710"/>
</linearGradient>
<linearGradient id="paint12_linear_1219_39" x1="9.96333" y1="84.3491" x2="9.96333" y2="104.854" gradientUnits="userSpaceOnUse">
<stop stop-color="#FFE4CA"/>
<stop offset="1" stop-color="#FF7710"/>
</linearGradient>
<linearGradient id="paint13_linear_1219_39" x1="95.8868" y1="40.6605" x2="95.8868" y2="61.6419" gradientUnits="userSpaceOnUse">
<stop stop-color="#FFE4CA"/>
<stop offset="1" stop-color="#FF7710"/>
</linearGradient>
<linearGradient id="paint14_linear_1219_39" x1="121.31" y1="61.5692" x2="121.31" y2="73.2908" gradientUnits="userSpaceOnUse">
<stop stop-color="#FFE4CA"/>
<stop offset="1" stop-color="#FF7710"/>
</linearGradient>
</defs>
</svg>
