<svg width="18" height="12" viewBox="0 0 18 12" fill="none" xmlns="http://www.w3.org/2000/svg">
<path d="M8.75 0C11.9691 0 15.8917 2.06505 17.2638 5.04172C17.3915 5.32196 17.5 5.64833 17.5 5.98069C17.5 6.31219 17.3924 6.63942 17.2638 6.91965C15.8909 9.89633 11.9683 11.9614 8.75 11.9614C5.53175 11.9614 1.60825 9.89633 0.23625 6.91965C0.1085 6.63856 0 6.31304 0 5.98069C0 5.64919 0.107625 5.32196 0.23625 5.04172C1.60913 2.06505 5.53175 0 8.75 0ZM8.75 2.56315C7.82174 2.56315 6.9315 2.92321 6.27513 3.56412C5.61875 4.20504 5.25 5.0743 5.25 5.98069C5.25 6.88707 5.61875 7.75634 6.27513 8.39725C6.9315 9.03816 7.82174 9.39822 8.75 9.39822C9.67826 9.39822 10.5685 9.03816 11.2249 8.39725C11.8813 7.75634 12.25 6.88707 12.25 5.98069C12.25 5.0743 11.8813 4.20504 11.2249 3.56412C10.5685 2.92321 9.67826 2.56315 8.75 2.56315ZM8.75 4.27192C9.21413 4.27192 9.65925 4.45195 9.98744 4.77241C10.3156 5.09286 10.5 5.52749 10.5 5.98069C10.5 6.43388 10.3156 6.86851 9.98744 7.18897C9.65925 7.50942 9.21413 7.68945 8.75 7.68945C8.28587 7.68945 7.84075 7.50942 7.51256 7.18897C7.18437 6.86851 7 6.43388 7 5.98069C7 5.52749 7.18437 5.09286 7.51256 4.77241C7.84075 4.45195 8.28587 4.27192 8.75 4.27192Z" fill="#111111"/>
</svg>
