<svg width="20" height="20" viewBox="0 0 20 20" fill="none" xmlns="http://www.w3.org/2000/svg">
<path d="M18.3334 10.0001C18.3334 9.77907 18.2456 9.56711 18.0893 9.41083C17.9331 9.25455 17.7211 9.16675 17.5001 9.16675C17.2791 9.16675 17.0671 9.25455 16.9108 9.41083C16.7545 9.56711 16.6667 9.77907 16.6667 10.0001H18.3334ZM10.0001 3.33341C10.2211 3.33341 10.4331 3.24562 10.5893 3.08934C10.7456 2.93306 10.8334 2.7211 10.8334 2.50008C10.8334 2.27907 10.7456 2.06711 10.5893 1.91083C10.4331 1.75455 10.2211 1.66675 10.0001 1.66675V3.33341ZM16.2501 16.6667H3.75008V18.3334H16.2501V16.6667ZM3.33341 16.2501V3.75008H1.66675V16.2501H3.33341ZM16.6667 10.0001V16.2501H18.3334V10.0001H16.6667ZM3.75008 3.33341H10.0001V1.66675H3.75008V3.33341ZM3.75008 16.6667C3.63957 16.6667 3.53359 16.6228 3.45545 16.5447C3.37731 16.4666 3.33341 16.3606 3.33341 16.2501H1.66675C1.66675 16.8026 1.88624 17.3325 2.27694 17.7232C2.66764 18.1139 3.19755 18.3334 3.75008 18.3334V16.6667ZM16.2501 18.3334C16.8026 18.3334 17.3325 18.1139 17.7232 17.7232C18.1139 17.3325 18.3334 16.8026 18.3334 16.2501H16.6667C16.6667 16.3606 16.6228 16.4666 16.5447 16.5447C16.4666 16.6228 16.3606 16.6667 16.2501 16.6667V18.3334ZM3.33341 3.75008C3.33341 3.63957 3.37731 3.53359 3.45545 3.45545C3.53359 3.37731 3.63957 3.33341 3.75008 3.33341V1.66675C3.19755 1.66675 2.66764 1.88624 2.27694 2.27694C1.88624 2.66764 1.66675 3.19755 1.66675 3.75008H3.33341Z" fill="black"/>
<path d="M2.5 14.5833L6.95542 10.4992C7.10559 10.3615 7.30097 10.2837 7.50465 10.2803C7.70832 10.2769 7.90618 10.3483 8.06083 10.4808L13.3333 15M11.6667 12.9167L13.6554 10.9279C13.7973 10.786 13.9856 10.7 14.1857 10.6857C14.3859 10.6715 14.5845 10.73 14.745 10.8504L17.5 12.9167M15.4167 7.5V2.5M15.4167 2.5L13.3333 4.58333M15.4167 2.5L17.5 4.58333" stroke="black" stroke-width="1.66667" stroke-linecap="round" stroke-linejoin="round"/>
</svg>
