<svg width="31" height="31" viewBox="0 0 31 31" fill="none" xmlns="http://www.w3.org/2000/svg">
<path d="M15.5 4.28668C22.75 4.28668 28.6262 8.86668 28.6262 14.5179C28.6262 20.1679 22.75 24.7479 15.5012 24.7479C14.7795 24.7467 14.0585 24.7007 13.3425 24.6104L7.83247 28.2142C7.20622 28.5454 6.98497 28.5092 7.24247 27.6979L8.35747 23.1004C4.75747 21.2754 2.37622 18.1129 2.37622 14.5179C2.37622 8.86793 8.25122 4.28668 15.5012 4.28668M22.8862 14.3617L24.7237 12.5817C24.8297 12.4716 24.8889 12.3246 24.8887 12.1717C24.8885 12.0189 24.829 11.8721 24.7227 11.7622C24.6164 11.6523 24.4717 11.588 24.3189 11.5828C24.1661 11.5776 24.0173 11.6318 23.9037 11.7342L21.4937 14.0667V12.1392C21.4937 11.9827 21.4316 11.8326 21.3209 11.722C21.2103 11.6113 21.0602 11.5492 20.9037 11.5492C20.7472 11.5492 20.5972 11.6113 20.4865 11.722C20.3759 11.8326 20.3137 11.9827 20.3137 12.1392V15.3354C20.2929 15.4268 20.2929 15.5216 20.3137 15.6129V17.4117C20.3137 17.5682 20.3759 17.7182 20.4865 17.8289C20.5972 17.9395 20.7472 18.0017 20.9037 18.0017C21.0602 18.0017 21.2103 17.9395 21.3209 17.8289C21.4316 17.7182 21.4937 17.5682 21.4937 17.4117V15.7079L22.0275 15.1917L23.8125 17.7329C23.857 17.7964 23.9137 17.8504 23.9791 17.892C24.0446 17.9335 24.1176 17.9618 24.194 17.9752C24.2703 17.9885 24.3486 17.9867 24.4243 17.9698C24.4999 17.9529 24.5715 17.9212 24.635 17.8767C24.6984 17.8321 24.7525 17.7755 24.794 17.71C24.8356 17.6446 24.8638 17.5716 24.8772 17.4952C24.8905 17.4188 24.8887 17.3406 24.8718 17.2649C24.8549 17.1892 24.8233 17.1176 24.7787 17.0542L22.8862 14.3617ZM19.1887 16.7667H17.3637V12.1579C17.3567 12.0063 17.2916 11.8632 17.1818 11.7584C17.0721 11.6536 16.9261 11.5951 16.7743 11.5951C16.6226 11.5951 16.4766 11.6536 16.3669 11.7584C16.2571 11.8632 16.192 12.0063 16.185 12.1579V17.3567C16.185 17.6817 16.4475 17.9467 16.7737 17.9467H19.1887C19.3452 17.9467 19.4953 17.8845 19.6059 17.7739C19.7166 17.6632 19.7787 17.5132 19.7787 17.3567C19.7787 17.2002 19.7166 17.0501 19.6059 16.9395C19.4953 16.8288 19.3452 16.7667 19.1887 16.7667ZM11.8675 15.4029L12.7375 13.2679L13.535 15.4017L11.8675 15.4029ZM15.0212 16.0117L15.0237 15.9917C15.0233 15.8431 14.9666 15.7001 14.865 15.5917L13.5575 12.0917C13.5027 11.9249 13.3983 11.7788 13.2582 11.6729C13.1182 11.5671 12.9491 11.5064 12.7737 11.4992C12.5972 11.4991 12.4247 11.5524 12.2791 11.6521C12.1334 11.7519 12.0213 11.8933 11.9575 12.0579L9.87997 17.1517C9.82079 17.2966 9.82159 17.459 9.88219 17.6033C9.94279 17.7476 10.0582 17.8619 10.2031 17.9211C10.348 17.9802 10.5104 17.9794 10.6547 17.9188C10.799 17.8582 10.9133 17.7428 10.9725 17.5979L11.3875 16.5817H13.975L14.3475 17.5817C14.3729 17.6564 14.413 17.7253 14.4656 17.7843C14.5181 17.8432 14.5819 17.891 14.6532 17.9249C14.7245 17.9587 14.8019 17.9779 14.8808 17.9812C14.9597 17.9846 15.0385 17.9721 15.1124 17.9445C15.1864 17.9169 15.254 17.8747 15.3114 17.8205C15.3688 17.7663 15.4147 17.7011 15.4464 17.6288C15.4781 17.5565 15.495 17.4785 15.496 17.3996C15.4971 17.3206 15.4823 17.2423 15.4525 17.1692L15.0212 16.0117ZM10.8675 12.1642C10.8678 12.0867 10.8528 12.0099 10.8234 11.9383C10.7939 11.8666 10.7506 11.8015 10.6958 11.7467C10.6411 11.6919 10.5761 11.6484 10.5045 11.6188C10.4329 11.5892 10.3562 11.574 10.2787 11.5742H6.22247C6.06599 11.5742 5.91592 11.6363 5.80528 11.747C5.69463 11.8576 5.63247 12.0077 5.63247 12.1642C5.63247 12.3207 5.69463 12.4707 5.80528 12.5814C5.91592 12.692 6.06599 12.7542 6.22247 12.7542H7.67247V17.4242C7.67247 17.5807 7.73463 17.7307 7.84528 17.8414C7.95592 17.952 8.10599 18.0142 8.26247 18.0142C8.41895 18.0142 8.56902 17.952 8.67966 17.8414C8.79031 17.7307 8.85247 17.5807 8.85247 17.4242V12.7542H10.2775C10.355 12.7545 10.4319 12.7395 10.5036 12.7099C10.5754 12.6804 10.6405 12.637 10.6954 12.5821C10.7503 12.5273 10.7937 12.4621 10.8232 12.3904C10.8528 12.3186 10.8678 12.2418 10.8675 12.1642Z" fill="black"/>
</svg>
