<svg width="17" height="18" viewBox="0 0 17 18" fill="none" xmlns="http://www.w3.org/2000/svg">
<path d="M10.2127 7.28723C9.89792 6.97232 9.52416 6.72251 9.11279 6.55208C8.70142 6.38164 8.2605 6.29392 7.81522 6.29392C7.36995 6.29392 6.92903 6.38164 6.51766 6.55208C6.10629 6.72251 5.73253 6.97232 5.41772 7.28723L1.99272 10.7132C1.357 11.3491 0.999906 12.2114 1 13.1106C1.00009 14.0097 1.35737 14.872 1.99322 15.5077C2.62908 16.1435 3.49143 16.5006 4.39058 16.5005C5.28972 16.5004 6.152 16.1431 6.78772 15.5072L7.10872 15.2032M6.78772 10.7132C7.10253 11.0281 7.47629 11.278 7.88766 11.4484C8.29903 11.6188 8.73995 11.7066 9.18522 11.7066C9.6305 11.7066 10.0714 11.6188 10.4828 11.4484C10.8942 11.278 11.2679 11.0281 11.5827 10.7132L15.0067 7.28723C15.6426 6.65151 15.9999 5.78923 15.9999 4.89009C16 3.99095 15.6429 3.12859 15.0072 2.49273C14.3715 1.85688 13.5092 1.49961 12.6101 1.49951C11.7109 1.49942 10.8486 1.85651 10.2127 2.49224L9.18472 3.45324" stroke="#FF7710" stroke-width="2" stroke-linecap="round" stroke-linejoin="round"/>
</svg>
