<svg xmlns="http://www.w3.org/2000/svg" width="40" height="40" viewBox="0 0 40 40" fill="none">
  <path d="M26.6666 3.33325V6.66659M18.3333 3.33325V6.66659M9.99996 3.33325V6.66659M32.5 16.6666C32.5 11.1666 32.5 8.41659 30.7916 6.70825C29.0833 4.99992 26.3333 4.99992 20.8333 4.99992H15.8333C10.3333 4.99992 7.58329 4.99992 5.87496 6.70825C4.16663 8.41659 4.16663 11.1666 4.16663 16.6666V24.9999C4.16663 30.4999 4.16663 33.2499 5.87496 34.9583C7.58329 36.6666 10.3333 36.6666 15.8333 36.6666H20.8333M29.1666 23.3333V36.6666M35.8333 29.9999H22.5M11.6666 24.9999H18.3333M11.6666 16.6666H25" stroke="white" stroke-width="2.5" stroke-linecap="round" stroke-linejoin="round"/>
</svg>