<svg width="65" height="66" viewBox="0 0 65 66" fill="none" xmlns="http://www.w3.org/2000/svg">
<g id="Lock 01">
<path id="Icon" d="M17.875 24.3333V21.8571C17.875 13.6268 24.3982 7 32.5 7C40.6018 7 47.125 13.6268 47.125 21.8571V24.3333M17.875 24.3333C15.1938 24.3333 13 26.5619 13 29.2857V54.0476C13 56.7714 15.1938 59 17.875 59H47.125C49.8063 59 52 56.7714 52 54.0476V29.2857C52 26.5619 49.8063 24.3333 47.125 24.3333M17.875 24.3333H47.125M32.5 36.7143C35.1813 36.7143 37.375 38.9429 37.375 41.6667C37.375 44.3905 35.1813 46.619 32.5 46.619C29.8188 46.619 27.625 44.3905 27.625 41.6667C27.625 38.9429 29.8188 36.7143 32.5 36.7143Z" stroke="#D9D9D9" stroke-width="4"/>
</g>
</svg>
