<svg width="22" height="22" viewBox="0 0 22 22" fill="none" xmlns="http://www.w3.org/2000/svg">
<path d="M14.6667 3.66669H16.5001C16.9863 3.66669 17.4526 3.85984 17.7964 4.20366C18.1403 4.54747 18.3334 5.01379 18.3334 5.50002V18.3334C18.3334 18.8196 18.1403 19.2859 17.7964 19.6297C17.4526 19.9735 16.9863 20.1667 16.5001 20.1667H5.50008C5.01385 20.1667 4.54754 19.9735 4.20372 19.6297C3.8599 19.2859 3.66675 18.8196 3.66675 18.3334V5.50002C3.66675 5.01379 3.8599 4.54747 4.20372 4.20366C4.54754 3.85984 5.01385 3.66669 5.50008 3.66669H7.33341" fill="#D9D9D9"/>
<path d="M14.6667 3.66669H16.5001C16.9863 3.66669 17.4526 3.85984 17.7964 4.20366C18.1403 4.54747 18.3334 5.01379 18.3334 5.50002V18.3334C18.3334 18.8196 18.1403 19.2859 17.7964 19.6297C17.4526 19.9735 16.9863 20.1667 16.5001 20.1667H5.50008C5.01385 20.1667 4.54754 19.9735 4.20372 19.6297C3.8599 19.2859 3.66675 18.8196 3.66675 18.3334V5.50002C3.66675 5.01379 3.8599 4.54747 4.20372 4.20366C4.54754 3.85984 5.01385 3.66669 5.50008 3.66669H7.33341" stroke="#9C9C9C" stroke-width="1.5" stroke-linecap="round" stroke-linejoin="round"/>
<path d="M13.7499 1.83331H8.24992C7.74366 1.83331 7.33325 2.24372 7.33325 2.74998V4.58331C7.33325 5.08957 7.74366 5.49998 8.24992 5.49998H13.7499C14.2562 5.49998 14.6666 5.08957 14.6666 4.58331V2.74998C14.6666 2.24372 14.2562 1.83331 13.7499 1.83331Z" fill="#D9D9D9" stroke="#9C9C9C" stroke-width="1.5" stroke-linecap="round" stroke-linejoin="round"/>
</svg>
