<svg width="26" height="25" viewBox="0 0 26 25" fill="none" xmlns="http://www.w3.org/2000/svg">
<path d="M21.651 2.73438C21.5582 2.73438 21.463 2.75146 21.3678 2.79053L7.29553 8.44482H3.29163C3.07678 8.44482 2.901 8.62549 2.901 8.8501V16.1499C2.901 16.3745 3.07678 16.5552 3.29163 16.5552H5.77454C5.6842 16.8384 5.63538 17.1387 5.63538 17.4438C5.63538 19.0527 6.94885 20.3613 8.56506 20.3613C9.9176 20.3613 11.0577 19.4434 11.3947 18.2031L21.3702 22.2119C21.4655 22.2485 21.5607 22.2681 21.6534 22.2681C22.066 22.2681 22.4347 21.9214 22.4347 21.4575V3.54492C22.4323 3.08105 22.066 2.73438 21.651 2.73438ZM8.56506 18.6108C7.91809 18.6108 7.39319 18.0884 7.39319 17.4438C7.39319 17.1704 7.4884 16.9092 7.66174 16.7017L9.7345 17.5342C9.68567 18.1348 9.1803 18.6108 8.56506 18.6108ZM20.6744 20.0366L7.94983 14.9243L7.63489 14.7974H4.65881V10.2026H7.63489L7.94983 10.0757L20.6744 4.96338V20.0366Z" fill="black"/>
</svg>
