<svg width="55" height="55" viewBox="0 0 55 55" fill="none" xmlns="http://www.w3.org/2000/svg">
<rect width="55" height="55" rx="27.5" fill="#FF7D2C"/>
<path d="M42.625 37.125C42.625 37.8543 42.3353 38.5538 41.8195 39.0695C41.3038 39.5853 40.6043 39.875 39.875 39.875H15.125C14.3957 39.875 13.6962 39.5853 13.1805 39.0695C12.6647 38.5538 12.375 37.8543 12.375 37.125V22C12.375 21.2707 12.6647 20.5712 13.1805 20.0555C13.6962 19.5397 14.3957 19.25 15.125 19.25H20.625L23.375 15.125H31.625L34.375 19.25H39.875C40.6043 19.25 41.3038 19.5397 41.8195 20.0555C42.3353 20.5712 42.625 21.2707 42.625 22V37.125Z" stroke="white" stroke-width="1.5" stroke-linecap="round" stroke-linejoin="round"/>
<path d="M27.5 34.375C30.5376 34.375 33 31.9126 33 28.875C33 25.8374 30.5376 23.375 27.5 23.375C24.4624 23.375 22 25.8374 22 28.875C22 31.9126 24.4624 34.375 27.5 34.375Z" stroke="white" stroke-width="1.5" stroke-linecap="round" stroke-linejoin="round"/>
</svg>
