<svg width="40" height="40" viewBox="0 0 40 40" fill="none" xmlns="http://www.w3.org/2000/svg">
<path d="M26.6666 3.33337V6.66671M18.3333 3.33337V6.66671M9.99996 3.33337V6.66671M32.5 16.6667C32.5 11.1667 32.5 8.41671 30.7916 6.70837C29.0833 5.00004 26.3333 5.00004 20.8333 5.00004H15.8333C10.3333 5.00004 7.58329 5.00004 5.87496 6.70837C4.16663 8.41671 4.16663 11.1667 4.16663 16.6667V25C4.16663 30.5 4.16663 33.25 5.87496 34.9584C7.58329 36.6667 10.3333 36.6667 15.8333 36.6667H20.8333M29.1666 23.3334V36.6667M35.8333 30H22.5M11.6666 25H18.3333M11.6666 16.6667H25" stroke="white" stroke-width="2.5" stroke-linecap="round" stroke-linejoin="round"/>
</svg>
