<svg width="26" height="29" viewBox="0 0 26 29" fill="none" xmlns="http://www.w3.org/2000/svg">
<path d="M12.5867 0H17.4815C17.8661 0 18.1808 0.396127 18.1808 0.880282V4.40141C18.1808 4.88556 17.8661 5.28169 17.4815 5.28169H14.0158L17.9316 8.80282H22.3763C23.9191 8.80282 25.1734 10.3818 25.1734 12.3239V24.6479C25.1734 26.59 23.9191 28.169 22.3763 28.169H14.6845V22.007C14.6845 20.5491 13.7448 19.3662 12.5867 19.3662C11.4285 19.3662 10.4889 20.5491 10.4889 22.007V28.169H2.79704C1.2543 28.169 0 26.59 0 24.6479V12.3239C0 10.3818 1.2543 8.80282 2.79704 8.80282H7.24171L11.1882 5.25418V1.76056C11.1882 0.786752 11.8131 0 12.5867 0ZM14.6845 13.2042C14.6845 12.5038 14.4634 11.8321 14.07 11.3369C13.6766 10.8416 13.143 10.5634 12.5867 10.5634C12.0303 10.5634 11.4967 10.8416 11.1033 11.3369C10.7099 11.8321 10.4889 12.5038 10.4889 13.2042C10.4889 13.9046 10.7099 14.5763 11.1033 15.0716C11.4967 15.5668 12.0303 15.8451 12.5867 15.8451C13.143 15.8451 13.6766 15.5668 14.07 15.0716C14.4634 14.5763 14.6845 13.9046 14.6845 13.2042ZM3.4963 12.3239C3.11171 12.3239 2.79704 12.7201 2.79704 13.2042V16.7254C2.79704 17.2095 3.11171 17.6056 3.4963 17.6056H4.89482C5.27941 17.6056 5.59408 17.2095 5.59408 16.7254V13.2042C5.59408 12.7201 5.27941 12.3239 4.89482 12.3239H3.4963ZM19.5793 13.2042V16.7254C19.5793 17.2095 19.8939 17.6056 20.2785 17.6056H21.6771C22.0617 17.6056 22.3763 17.2095 22.3763 16.7254V13.2042C22.3763 12.7201 22.0617 12.3239 21.6771 12.3239H20.2785C19.8939 12.3239 19.5793 12.7201 19.5793 13.2042ZM3.4963 19.3662C3.11171 19.3662 2.79704 19.7623 2.79704 20.2465V23.7676C2.79704 24.2518 3.11171 24.6479 3.4963 24.6479H4.89482C5.27941 24.6479 5.59408 24.2518 5.59408 23.7676V20.2465C5.59408 19.7623 5.27941 19.3662 4.89482 19.3662H3.4963ZM20.2785 19.3662C19.8939 19.3662 19.5793 19.7623 19.5793 20.2465V23.7676C19.5793 24.2518 19.8939 24.6479 20.2785 24.6479H21.6771C22.0617 24.6479 22.3763 24.2518 22.3763 23.7676V20.2465C22.3763 19.7623 22.0617 19.3662 21.6771 19.3662H20.2785Z" fill="#9C9CA1" fill-opacity="0.7"/>
</svg>
