<svg width="178" height="178" viewBox="0 0 178 178" fill="none" xmlns="http://www.w3.org/2000/svg">
<path d="M120.353 100.047C121.702 99.0088 123.152 99.2643 124.524 99.4459C126.937 99.7654 129.323 99.619 131.703 99.2751C134.14 98.9229 136.115 96.7037 136.624 93.8559C131.596 94.7916 126.507 94.6241 121.436 94.8053C119.931 94.8591 119.397 94.2888 119.285 92.8706C119.167 91.3673 118.938 89.8593 118.596 88.391C118.288 87.0671 118.77 86.7548 120 86.7434C124.542 86.7014 129.084 86.5816 133.625 86.495C134.357 86.4811 135.071 86.4011 135.796 86.2558C137.51 85.9117 138.568 84.9626 138.557 83.1939C138.541 80.5724 139.585 78.5716 141.707 77.0822C141.86 76.9746 141.941 76.7638 142.147 76.4705C138.777 73.8571 135.683 70.9943 132.135 68.6809C126.727 65.1552 126.69 65.1392 124.993 59.0002C124.39 56.8188 123.287 55.4946 121.021 54.9213C118.038 54.1667 115.122 53.1563 112.003 53.0736C110.891 53.0442 110.336 52.436 110.176 51.3278C108.858 42.2032 100.028 33.2983 87.0735 34.685C79.8662 35.4566 72.8569 36.9811 66.2479 40.0364C55.6062 44.9559 47.0333 52.1317 41.7013 62.7724C40.9808 64.2103 40.451 65.7437 39.6972 67.5597C40.689 67.1683 41.2189 66.6544 41.7508 66.1326C45.6267 62.3305 49.4101 58.4268 53.7174 55.0926C58.7579 51.1909 64.1452 47.9676 70.4734 46.5926C71.1451 46.4466 71.8129 46.3286 72.4896 46.4595C73.4079 46.6373 73.9957 47.1296 73.9972 48.153C73.9993 49.5667 73.8997 50.9689 73.6 52.3527C73.2842 53.811 72.0394 54.0945 70.8835 54.3664C65.2945 55.6811 60.6639 58.7733 56.2194 62.2027C52.5212 65.0562 49.3804 68.4793 46.4202 72.067C44.5857 74.2905 42.3042 75.9177 39.7388 77.1343C38.7486 77.604 38.1881 78.243 37.8123 79.227C36.8336 81.7894 36.6419 84.5167 36.0598 87.1611C35.7978 88.3512 35.4444 89.4947 34.5819 90.3907C33.6627 91.3455 32.6957 92.2618 31.1808 91.7952C29.6277 91.3167 28.4525 89.8432 28.3398 88.2105C28.1984 86.1605 28.5377 84.1532 28.9423 82.1569C30.1426 76.2336 31.1695 70.2765 33.2951 64.5708C37.197 54.097 43.9426 45.8793 52.9763 39.4446C60.574 34.0328 69.0524 30.5956 78.1008 28.5317C85.2776 26.8947 92.4557 26.5687 99.586 28.919C105.492 30.8656 109.969 34.6167 113.362 39.7195C114.484 41.4072 115.609 43.1272 116.206 45.1018C116.424 45.8246 116.95 45.9646 117.594 46.1466C120.055 46.8422 122.508 47.5754 124.937 48.3749C129.371 49.8343 132.047 52.8166 132.546 57.5332C132.752 59.4785 133.582 60.7791 135.275 61.9325C139.716 64.958 143.986 68.2368 148.292 71.4582C150.993 73.4789 151.389 74.9043 150.229 78.0826C149.617 79.76 148.813 81.3817 147.569 82.6572C145.653 84.6214 144.904 86.8351 145.089 89.5851C145.334 93.2031 144.508 96.6474 142.454 99.7089C139.293 104.42 135.039 107.278 129.196 107.295C126.378 107.302 123.557 107.399 120.74 107.142C119.422 107.022 118.921 106.365 119.029 105.083C119.173 103.363 119.267 101.64 120.353 100.047Z" fill="#222222"/>
<path d="M114.455 95.3475C114.542 102.66 113.244 109.605 111.067 116.387C109.784 120.385 107.388 123.861 105.427 127.534C102.992 132.094 99.7939 136.185 97.124 140.607C96.3944 141.815 95.4719 142.904 94.1489 143.535C92.2794 144.426 90.6176 143.861 89.9715 141.915C89.091 139.264 89.197 136.762 91.2112 134.463C96.9 127.97 101.492 120.736 104.391 112.61C106.254 107.389 106.788 101.838 106.448 96.2591C106.423 95.8537 106.321 95.453 106.26 95.0819C105.52 94.7627 105.084 95.2553 104.629 95.5363C98.8857 99.0874 94.4635 103.898 90.7637 109.526C85.0994 118.143 83.2436 127.713 83.0669 137.779C82.9945 141.902 83.131 146.015 83.6669 150.109C83.7141 150.47 83.7005 150.839 83.7036 151.204C83.7234 153.536 82.5049 155.258 80.6677 155.499C78.7826 155.747 76.7062 154.229 76.2403 152.063C75.6684 149.404 75.6285 146.668 75.5473 143.968C75.3245 136.55 75.5805 129.142 77.5454 121.929C80.3913 111.482 85.8709 102.512 93.3737 94.7747C96.4093 91.6442 100.044 89.2623 103.964 87.3396C105.859 86.4095 107.904 85.944 109.976 85.6787C112.582 85.3451 113.613 86.2688 113.822 88.8276C113.995 90.9529 114.241 93.0723 114.455 95.3475Z" fill="#222222"/>
<path d="M108.823 8.75311C122.468 11.7904 134.202 18.1628 144.472 27.3852C156.045 37.778 163.719 50.6054 168.391 65.3143C169.335 68.2887 170.173 71.311 170.587 74.4315C170.744 75.6153 170.549 76.2876 169.2 76.1668C167.488 76.0136 165.912 76.4755 164.336 77.4773C163.456 74.4422 162.64 71.607 161.813 68.7749C158.465 57.3141 152.771 47.1609 144.766 38.3015C136.965 29.6681 127.658 23.1978 116.801 18.9887C113.438 17.6849 109.936 16.8369 106.412 16.0747C103.874 15.5257 103.689 15.1796 104.347 12.6388C104.49 12.0845 104.663 11.5365 104.847 10.9942C105.783 8.24068 105.786 8.24166 108.823 8.75311Z" fill="#222222"/>
<path d="M15.2988 75.2994C15.1824 75.9427 15.1006 76.4572 14.9795 76.9623C14.9474 77.0964 14.7948 77.2016 14.5306 77.5234C12.9427 76.1305 10.9773 76.0777 8.97903 76.1249C7.76817 76.1535 8.00858 75.2861 8.14557 74.578C9.2056 69.0983 10.3172 63.631 12.5199 58.4608C16.501 49.1162 21.7494 40.5628 28.7426 33.1666C37.3227 24.092 47.4356 17.1926 58.9892 12.4152C63.0979 10.7163 67.2823 9.28143 71.6801 8.50547C72.7762 8.31207 73.3508 8.50704 73.5295 9.69081C73.6999 10.8192 74.0397 11.9215 74.2909 13.0384C74.7461 15.0618 74.6138 15.3762 72.5685 15.8953C68.6718 16.8844 64.779 17.8594 61.0532 19.4144C51.4923 23.4047 43.0507 28.9993 35.7666 36.4118C25.9281 46.4236 19.585 58.3239 16.0282 71.801C15.7359 72.9084 15.5526 74.0444 15.2988 75.2994Z" fill="#222222"/>
<path d="M11.3112 117.156C10.2919 114.176 9.56139 111.242 8.84084 108.305C8.55894 107.156 8.64505 106.437 10.1385 106.335C11.4768 106.243 12.8281 105.892 13.9805 105.108C15.0479 104.383 15.4101 104.9 15.6884 105.912C16.573 109.129 17.4489 112.348 18.6561 115.469C24.2488 129.926 33.3012 141.742 45.9046 150.759C53.8376 156.435 62.5972 160.403 72.1365 162.605C73.1281 162.834 74.2484 162.564 75.1676 163.313C75.1157 164.297 74.4191 165.013 74.1244 165.887C73.789 166.881 73.3925 167.858 73.4851 168.923C73.5982 170.222 73.1364 170.577 71.8445 170.27C67.9782 169.352 64.1494 168.309 60.4516 166.857C44.6225 160.64 31.7648 150.641 21.8831 136.77C17.552 130.69 14.073 124.197 11.3112 117.156Z" fill="#222222"/>
<path d="M152.076 130.848C156.998 123.363 160.606 115.415 162.693 106.812C163.046 105.357 163.547 105.008 164.932 105.68C165.95 106.175 167.094 106.457 168.211 106.694C170.095 107.092 170.241 107.253 169.831 109.054C168.55 114.68 166.477 120.028 163.862 125.145C159.199 134.27 153.323 142.522 145.895 149.651C138.876 156.387 130.837 161.527 121.958 165.422C117.31 167.461 112.584 169.238 107.572 170.198C105.426 170.61 105.299 170.57 105.015 168.395C104.88 167.366 104.714 166.315 104.363 165.345C103.847 163.921 104.377 163.407 105.735 163.121C110.295 162.161 114.671 160.616 118.954 158.789C128.816 154.582 137.254 148.407 144.538 140.576C147.324 137.581 149.812 134.379 152.076 130.848Z" fill="#222222"/>
<path d="M71.941 98.1039C78.4975 88.0303 87.2226 80.6551 98.056 75.7487C99.7209 74.9946 101.42 74.7419 102.864 76.1604C103.993 77.2694 104.318 78.6693 103.758 80.1976C103.263 81.5445 102.089 82.2171 100.897 82.7131C93.5869 85.7557 87.3321 90.2529 82.0796 96.1558C78.7331 99.9166 76.0577 104.115 73.7846 108.604C70.6972 114.703 69.3303 121.279 68.4248 127.94C67.6441 133.683 67.9582 139.5 67.9999 145.289C68.0071 146.28 68.0469 147.273 68.0209 148.263C67.952 150.892 65.6755 152.271 63.3136 151.125C61.5799 150.285 60.7757 148.809 60.7142 146.968C60.4405 138.775 60.5081 130.605 61.9686 122.488C63.5544 113.674 66.919 105.621 71.941 98.1039Z" fill="#222222"/>
<path d="M70.9705 87.4058C61.7912 97.0044 56.2195 108.313 54.0002 121.244C53.1344 126.289 53.1209 131.422 53.2122 136.54C53.2252 137.269 53.2396 138.006 53.1604 138.729C52.9586 140.571 51.4653 141.699 49.6445 141.436C47.4453 141.119 46.0518 139.497 45.9218 137.292C45.1156 123.62 48.115 110.792 54.2799 98.6098C59.2892 88.7107 66.2925 80.5904 75.4427 74.3276C79.1319 71.8026 83.2795 70.1776 87.4116 68.5596C89.4291 67.7696 90.1877 68.2595 90.7178 70.3527C91.6077 73.867 91.1501 74.9835 87.8161 76.519C81.709 79.3317 75.9389 82.6412 70.9705 87.4058Z" fill="#222222"/>
<path d="M41.9333 89.4226C46.5707 80.6954 52.9663 73.6055 60.6543 67.6768C65.2631 64.1226 70.2456 61.1935 76.0057 59.801C77.1276 59.5297 77.9107 59.7003 78.5973 60.6171C79.1591 61.3673 79.8435 62.0261 80.4008 62.7791C81.5157 64.2856 81.1993 65.4047 79.3916 66.0152C76.2718 67.069 73.2049 68.1938 70.3458 69.8813C61.194 75.283 54.0127 82.5837 48.7296 91.7969C45.837 96.8412 43.3519 102.054 41.9258 107.701C41.1357 110.83 40.6583 114.033 40.6236 117.282C40.6089 118.653 40.4223 119.975 39.5957 121.149C38.4806 122.732 37.092 123.061 35.399 122.076C33.3273 120.872 32.3714 118.449 32.8285 115.517C34.2645 106.303 37.2055 97.6116 41.9333 89.4226Z" fill="#222222"/>
<path d="M90.5439 0.00937069C95.8189 1.18095 98.5247 4.53963 98.3314 9.52443C98.1619 13.8939 93.1702 18.5601 89.1555 18.102C83.3104 17.4351 79.5525 12.9132 80.4897 7.67447C81.4008 2.582 84.9713 -0.182606 90.5439 0.00937069Z" fill="#222222"/>
<path d="M96.0181 174.761C92.3707 178.199 87.8801 178.442 83.8543 175.496C80.5902 173.107 79.4518 168.328 81.2408 164.524C82.8861 161.026 87.513 158.897 91.5715 159.772C95.5117 160.621 98.2228 163.989 98.3504 168.068C98.4288 170.577 97.8231 172.808 96.0181 174.761Z" fill="#222222"/>
<path d="M160.221 91.4634C160.482 87.0775 162.738 84.429 166.884 83.0585C170.505 81.8616 174.671 83.8942 176.575 86.4973C178.536 89.1794 178.463 93.9797 176.416 96.8327C174.166 99.9697 170.426 101.207 166.564 100.093C162.622 98.9566 160.493 96.1076 160.221 91.4634Z" fill="#222222"/>
<path d="M13.2434 99.326C9.68429 101.18 6.29995 101.006 3.31764 98.5345C0.482486 96.1853 -0.623855 92.9838 0.342265 89.3784C1.30113 85.8002 3.79984 83.5556 7.40932 82.8009C10.9966 82.0508 13.8625 83.553 16.0859 86.2887C18.2869 88.9968 18.41 92.0101 16.9815 95.1089C16.1848 96.8372 15.1497 98.4004 13.2434 99.326Z" fill="#222222"/>
<path d="M94.6548 40.9484C98.6121 41.9213 101.128 44.4068 102.843 47.833C102.913 47.9728 102.999 48.1076 103.048 48.2545C103.541 49.717 103.862 51.2179 102.95 52.6029C102.416 53.4154 99.1835 53.8496 98.019 53.3376C96.9379 52.8623 96.5934 51.7203 96.0035 50.8217C94.9361 49.1955 93.5579 48.1265 91.541 48.0912C88.4313 48.0367 87.0003 50.3785 88.4905 53.0651C89.9697 55.7318 89.7747 57.6195 87.9227 58.5612C86.0909 59.4926 82.5693 58.5116 81.4509 56.7583C78.2434 51.7301 80.7567 43.944 86.2894 41.7018C88.9663 40.6169 91.6833 40.1311 94.6548 40.9484Z" fill="#222222"/>
<path d="M117.027 59.9099C120.386 60.2849 122.455 64.7121 120.341 67.7526C119.08 69.5661 117.149 70.4929 115.122 70.0306C113.338 69.6237 111.678 67.7315 111.423 65.8142C111.138 63.6691 112.288 61.4331 114.187 60.4687C115.036 60.0377 115.932 59.7895 117.027 59.9099Z" fill="#222222"/>
<path d="M137.685 80.0118C138.486 80.6967 139.68 80.6433 140.416 79.8898L143.498 76.735C144.765 75.4376 143.79 73.2585 141.978 73.3395L135.545 73.6269C133.733 73.7078 132.956 75.9652 134.334 77.1445L137.685 80.0118Z" fill="#222222"/>
</svg>
