<svg width="35" height="35" viewBox="0 0 35 35" fill="none" xmlns="http://www.w3.org/2000/svg">
<path d="M16.042 4.375H5.83366C5.06011 4.375 4.31825 4.68229 3.77126 5.22927C3.22428 5.77625 2.91699 6.51812 2.91699 7.29167V27.7083C2.91699 28.4819 3.22428 29.2237 3.77126 29.7707C4.31825 30.3177 5.06011 30.625 5.83366 30.625H26.2503C27.0239 30.625 27.7657 30.3177 28.3127 29.7707C28.8597 29.2237 29.167 28.4819 29.167 27.7083V17.5" stroke="white" stroke-width="1.5" stroke-linecap="round" stroke-linejoin="round"/>
<path d="M26.9795 2.18783C27.5597 1.60767 28.3465 1.28174 29.167 1.28174C29.9875 1.28174 30.7743 1.60767 31.3545 2.18783C31.9347 2.76799 32.2606 3.55486 32.2606 4.37533C32.2606 5.1958 31.9347 5.98267 31.3545 6.56283L17.5003 20.417L11.667 21.8753L13.1253 16.042L26.9795 2.18783Z" stroke="white" stroke-width="1.5" stroke-linecap="round" stroke-linejoin="round"/>
</svg>
