<svg width="48" height="48" viewBox="0 0 48 48" fill="none" xmlns="http://www.w3.org/2000/svg">
<rect width="48" height="48" rx="15" fill="white"/>
<path d="M30.7657 27.407C30.8256 26.7623 31.341 26.2625 31.9829 26.3474V26.3474C32.5252 26.4192 33.0612 26.3863 33.5961 26.309V26.309C34.4357 26.1877 33.8049 25.2319 32.9572 25.2631C32.4015 25.2835 31.8447 25.2847 31.2888 25.3046C30.9508 25.3167 30.8308 25.1885 30.8056 24.8698C30.7789 24.532 30.7277 24.1931 30.6508 23.8632C30.5815 23.5657 30.6898 23.4955 30.9662 23.4929C31.9869 23.4835 33.0075 23.4566 34.0281 23.4371C34.1926 23.434 34.3531 23.416 34.5159 23.3833C34.9012 23.306 35.1389 23.0927 35.1365 22.6953C35.1329 22.1062 35.3673 21.6566 35.8442 21.3219V21.3219C35.9222 21.2671 35.8839 21.1385 35.8092 21.0794C35.103 20.5213 34.4433 19.923 33.6932 19.4339C32.4779 18.6416 32.4696 18.638 32.0883 17.2585C31.9528 16.7683 31.7049 16.4707 31.1956 16.3419C30.5253 16.1723 29.8701 15.9453 29.1691 15.9267C28.9194 15.9201 28.7945 15.7834 28.7585 15.5344C28.4624 13.4839 26.4781 11.4828 23.567 11.7944C21.9474 11.9678 20.3723 12.3104 18.8871 12.997C16.4957 14.1025 14.5692 15.715 13.371 18.1062C13.2834 18.2809 13.2084 18.462 13.1312 18.6559C13.0527 18.8529 13.2308 19.0097 13.3821 18.8613V18.8613C14.2531 18.0069 15.1033 17.1296 16.0713 16.3804C17.204 15.5036 18.4146 14.7793 19.8367 14.4703C19.9876 14.4375 20.1377 14.4109 20.2897 14.4404C20.4961 14.4803 20.6282 14.5909 20.6285 14.8209C20.629 15.1386 20.6066 15.4537 20.5393 15.7647C20.4683 16.0924 20.1886 16.1561 19.9288 16.2172C18.6729 16.5126 17.6323 17.2075 16.6335 17.9782C15.8025 18.6194 15.0967 19.3886 14.4314 20.1949C14.0192 20.6945 13.5065 21.0602 12.93 21.3336C12.7075 21.4391 12.5815 21.5827 12.4971 21.8038C12.2771 22.3797 12.2341 22.9926 12.1033 23.5868C12.0444 23.8542 11.965 24.1112 11.7711 24.3125C11.5646 24.5271 11.3473 24.733 11.0069 24.6282C10.6578 24.5206 10.3937 24.1895 10.3684 23.8226C10.3366 23.3619 10.4129 22.9109 10.5038 22.4622C10.7735 21.1312 11.0043 19.7925 11.482 18.5103C12.3588 16.1566 13.8747 14.31 15.9047 12.864C17.6121 11.6478 19.5173 10.8754 21.5507 10.4116C23.1635 10.0438 24.7765 9.97051 26.3788 10.4987C27.706 10.9361 28.7121 11.7791 29.4745 12.9258C29.7266 13.305 29.9794 13.6915 30.1136 14.1353C30.1627 14.2977 30.281 14.3292 30.4256 14.37C30.9786 14.5264 31.5297 14.6911 32.0756 14.8708C33.0721 15.1987 33.6735 15.8689 33.7857 16.9288C33.8319 17.366 34.0184 17.6583 34.3988 17.9174C35.3969 18.5973 36.3564 19.3341 37.324 20.058C37.931 20.5121 38.0199 20.8325 37.7593 21.5467C37.6217 21.9236 37.441 22.2881 37.1615 22.5747C36.7311 23.0161 36.5625 23.5135 36.6043 24.1315C36.6592 24.9445 36.4737 25.7185 36.0121 26.4065C35.3018 27.4652 34.3459 28.1076 33.0327 28.1112C32.3994 28.1129 31.7655 28.1346 31.1325 28.0769C30.8363 28.0499 30.7238 27.9022 30.748 27.6143C30.7538 27.5452 30.7593 27.476 30.7657 27.407Z" fill="url(#paint0_linear_304_385)"/>
<path d="M29.7202 25.4264C29.7397 27.0696 29.448 28.6303 28.9588 30.1545C28.6706 31.0528 28.1322 31.8339 27.6914 32.6593C27.1442 33.6841 26.4256 34.6035 25.8256 35.5971C25.6617 35.8686 25.4543 36.1134 25.1571 36.2551C24.7369 36.4554 24.3635 36.3284 24.2183 35.8911C24.0204 35.2953 24.0443 34.733 24.4969 34.2164C25.7753 32.7573 26.8072 31.1317 27.4587 29.3057C27.8774 28.1325 27.9972 26.8851 27.9208 25.6313V25.6313C27.9106 25.4646 27.7659 25.3047 27.6241 25.393C27.5851 25.4173 27.5489 25.4462 27.5122 25.4689C26.2215 26.2669 25.2278 27.348 24.3963 28.6127C23.1235 30.5489 22.7064 32.6997 22.6667 34.9617C22.6504 35.8882 22.6811 36.8125 22.8015 37.7325C22.8121 37.8135 22.8091 37.8964 22.8098 37.9785C22.8142 38.5025 22.5404 38.8894 22.1276 38.9437C21.7039 38.9994 21.2373 38.6582 21.1326 38.1714C21.0041 37.5739 20.9951 36.9592 20.9769 36.3523C20.9268 34.6854 20.9844 33.0208 21.4259 31.3999C22.0655 29.0522 23.2968 27.0364 24.9829 25.2977C25.665 24.5942 26.4819 24.059 27.3626 23.6269C27.7886 23.4179 28.248 23.3133 28.7138 23.2537C29.2993 23.1787 29.5309 23.3863 29.5779 23.9613C29.6169 24.4389 29.6721 24.9152 29.7202 25.4264Z" fill="url(#paint1_linear_304_385)"/>
<path d="M28.4546 5.967C31.5209 6.64952 34.1577 8.08153 36.4655 10.154C39.0661 12.4895 40.7908 15.372 41.8405 18.6774C42.0528 19.3458 42.241 20.025 42.334 20.7262C42.3693 20.9922 42.3255 21.1433 42.0224 21.1162V21.1162C41.4479 21.0647 40.7691 20.8565 40.6087 20.3025C40.5261 20.0174 40.4444 19.7361 40.3623 19.4551C39.61 16.8796 38.3305 14.598 36.5316 12.6071C34.7786 10.667 32.6872 9.21299 30.2474 8.26713C29.4916 7.97414 28.7046 7.78359 27.9128 7.61231C27.3425 7.48893 27.3008 7.41115 27.4486 6.84019C27.4809 6.71562 27.5197 6.59248 27.5611 6.4706C27.7715 5.85184 27.7721 5.85206 28.4546 5.967Z" fill="url(#paint2_linear_304_385)"/>
<path d="M7.43793 20.9212C7.41178 21.0658 7.39339 21.1814 7.36618 21.2949V21.2949C7.34547 21.3813 7.21041 21.3713 7.13607 21.3226C6.80454 21.1055 6.41402 21.0974 6.01776 21.1067C5.74565 21.1131 5.79968 20.9182 5.83046 20.7591C6.06867 19.5277 6.31848 18.2991 6.81346 17.1373C7.70809 15.0374 8.8875 13.1152 10.459 11.4532C12.3871 9.41392 14.6597 7.8635 17.256 6.78993C18.1793 6.40814 19.1196 6.0857 20.1079 5.91133C20.3542 5.86787 20.4833 5.91169 20.5235 6.1777C20.5618 6.43127 20.6381 6.67898 20.6946 6.92997C20.7969 7.38466 20.7672 7.45531 20.3075 7.57197C19.4319 7.79423 18.5571 8.01334 17.7198 8.36277C15.5713 9.25948 13.6743 10.5167 12.0374 12.1824C9.82654 14.4323 8.40112 17.1065 7.60183 20.1351C7.53616 20.3839 7.49496 20.6392 7.43793 20.9212Z" fill="url(#paint3_linear_304_385)"/>
<path d="M6.54191 30.3273C6.31286 29.6575 6.14869 28.9983 5.98677 28.3382C5.92342 28.08 5.94277 27.9184 6.27838 27.8954C6.57912 27.8749 6.88279 27.7959 7.14175 27.6199C7.38163 27.4568 7.46302 27.573 7.52555 27.8004C7.72435 28.5234 7.92116 29.2468 8.19246 29.9481C9.44924 33.197 11.4835 35.8522 14.3157 37.8785C16.0984 39.154 18.0669 40.0456 20.2105 40.5404C20.2371 40.5465 20.2641 40.5511 20.2914 40.5546C20.6832 40.6053 20.7836 40.9036 20.6573 41.2779V41.2779C20.5819 41.5013 20.4928 41.721 20.5136 41.9602C20.539 42.2522 20.4352 42.332 20.1449 42.263C19.2761 42.0567 18.4157 41.8223 17.5847 41.496C14.0276 40.0989 11.1382 37.8519 8.91761 34.7348C7.94435 33.3686 7.16253 31.9095 6.54191 30.3273Z" fill="url(#paint4_linear_304_385)"/>
<path d="M38.1745 33.404C39.2806 31.7221 40.0914 29.936 40.5604 28.0028C40.6397 27.6758 40.7524 27.5973 41.0635 27.7483C41.2924 27.8595 41.5493 27.923 41.8005 27.9761C42.2237 28.0656 42.2567 28.1019 42.1645 28.5065C41.8766 29.7709 41.4108 30.9725 40.8231 32.1225C39.7751 34.1731 38.4549 36.0275 36.7855 37.6295C35.2083 39.1431 33.4018 40.2983 31.4064 41.1735C30.362 41.6317 29.2998 42.0311 28.1737 42.2468C27.6913 42.3393 27.6629 42.3303 27.599 41.8416C27.5687 41.6103 27.5315 41.3741 27.4525 41.1563C27.3365 40.8362 27.4556 40.7206 27.7607 40.6564C28.7856 40.4407 29.7688 40.0936 30.7314 39.6829C32.9475 38.7376 34.8437 37.3498 36.4806 35.5902C37.1068 34.9171 37.6659 34.1974 38.1745 33.404Z" fill="url(#paint5_linear_304_385)"/>
<path d="M20.1664 26.0458C21.6398 23.7821 23.6005 22.1248 26.035 21.0222C26.4091 20.8527 26.7909 20.7959 27.1154 21.1147C27.369 21.3639 27.4422 21.6785 27.3162 22.0219C27.2052 22.3246 26.9412 22.4758 26.6734 22.5872C25.0307 23.271 23.6251 24.2816 22.4448 25.6081C21.6928 26.4532 21.0915 27.3966 20.5807 28.4055C19.8869 29.7759 19.5798 31.2537 19.3763 32.7507C19.2008 34.0412 19.2714 35.3484 19.2808 36.6493C19.2824 36.872 19.2914 37.095 19.2855 37.3175C19.27 37.9084 18.7585 38.2182 18.2277 37.9608C17.8381 37.7719 17.6574 37.4402 17.6436 37.0265C17.582 35.1853 17.5972 33.3496 17.9254 31.5255C18.2818 29.5448 19.0379 27.7351 20.1664 26.0458Z" fill="url(#paint6_linear_304_385)"/>
<path d="M19.9484 23.6418C17.8856 25.7988 16.6336 28.3401 16.1348 31.246C15.9403 32.3796 15.9372 33.5331 15.9578 34.6831C15.9607 34.8471 15.9639 35.0126 15.9461 35.1751C15.9008 35.5891 15.5652 35.8424 15.156 35.7834C14.6618 35.7121 14.3487 35.3476 14.3195 34.8523C14.1383 31.7798 14.8123 28.8972 16.1977 26.1595C17.3234 23.935 18.8972 22.1102 20.9534 20.7029C21.7824 20.1354 22.7145 19.7703 23.643 19.4067C24.0964 19.2291 24.2669 19.3392 24.386 19.8096C24.586 20.5994 24.4832 20.8503 23.7339 21.1953C22.3615 21.8274 21.0649 22.5711 19.9484 23.6418Z" fill="url(#paint7_linear_304_385)"/>
<path d="M13.4233 24.095C14.4654 22.1338 15.9026 20.5406 17.6303 19.2083C18.6659 18.4096 19.7856 17.7514 21.08 17.4384C21.3321 17.3775 21.5081 17.4158 21.6624 17.6218C21.7886 17.7904 21.9424 17.9385 22.0677 18.1077C22.3182 18.4462 22.2471 18.6977 21.8409 18.8349C21.1398 19.0717 20.4506 19.3245 19.8081 19.7037C17.7515 20.9175 16.1378 22.5581 14.9505 24.6285C14.3005 25.7621 13.7421 26.9336 13.4216 28.2025C13.244 28.9056 13.1368 29.6255 13.129 30.3556C13.1257 30.6635 13.0837 30.9608 12.898 31.2245C12.6474 31.5803 12.3354 31.6541 11.9549 31.4329C11.4894 31.1622 11.2746 30.6178 11.3773 29.9588C11.7 27.8884 12.3609 25.9352 13.4233 24.095Z" fill="url(#paint8_linear_304_385)"/>
<path d="M23.0114 4.29275C23.8072 3.82861 24.9159 3.96659 25.5655 4.61978C25.9398 4.99616 26.1214 5.51048 26.0969 6.14032C26.0589 7.12222 24.9371 8.17081 24.0349 8.06787C22.7214 7.918 21.8769 6.90184 22.0876 5.7246C22.2058 5.06387 22.5232 4.57752 23.0114 4.29275Z" fill="url(#paint9_linear_304_385)"/>
<path d="M25.5773 43.2722C24.7576 44.0448 23.7485 44.0993 22.8438 43.4373C22.1103 42.9005 21.8545 41.8266 22.2565 40.9717C22.6263 40.1856 23.666 39.7072 24.578 39.9038C25.4635 40.0946 26.0727 40.8515 26.1014 41.7681C26.119 42.3319 25.9829 42.8332 25.5773 43.2722Z" fill="url(#paint10_linear_304_385)"/>
<path d="M40.0046 24.5536C40.0635 23.568 40.5704 22.9728 41.5021 22.6649C42.3158 22.3959 43.252 22.8527 43.6798 23.4376C44.1206 24.0403 44.1041 25.119 43.6441 25.7602C43.1384 26.4651 42.298 26.7432 41.43 26.4929C40.5442 26.2375 40.0658 25.5972 40.0046 24.5536Z" fill="url(#paint11_linear_304_385)"/>
<path d="M6.97606 26.3205C6.17625 26.7371 5.41572 26.6979 4.74554 26.1426C4.10842 25.6147 3.85981 24.8953 4.07691 24.0851C4.29239 23.281 4.8539 22.7766 5.66502 22.607C6.47116 22.4384 7.11517 22.776 7.61482 23.3907C8.10943 23.9993 8.13708 24.6764 7.81607 25.3728C7.63704 25.7612 7.40443 26.1125 6.97606 26.3205Z" fill="url(#paint12_linear_304_385)"/>
<path d="M25.2708 13.2019C26.1601 13.4205 26.7254 13.9791 27.1108 14.749C27.1265 14.7804 27.1458 14.8107 27.1569 14.8437C27.2678 15.1724 27.3397 15.5096 27.135 15.8209C27.0148 16.0035 26.2885 16.101 26.0268 15.986C25.7838 15.8792 25.7064 15.6226 25.5738 15.4206C25.334 15.0552 25.0243 14.8149 24.571 14.807C23.8722 14.7948 23.5507 15.321 23.8855 15.9247C24.2179 16.524 24.1741 16.9482 23.7579 17.1598C23.3463 17.3691 22.5549 17.1487 22.3036 16.7547C21.5828 15.6248 22.1476 13.8751 23.3909 13.3712C23.9925 13.1274 24.603 13.0182 25.2708 13.2019Z" fill="url(#paint13_linear_304_385)"/>
<path d="M30.2982 17.4629C31.053 17.5472 31.5178 18.5421 31.0428 19.2253C30.7595 19.6328 30.3255 19.8411 29.8701 19.7372C29.4692 19.6458 29.0962 19.2206 29.0389 18.7897C28.9748 18.3077 29.2331 17.8052 29.66 17.5885C29.8508 17.4916 30.052 17.4359 30.2982 17.4629Z" fill="url(#paint14_linear_304_385)"/>
<path d="M35.0468 22.0712C35.1669 22.1739 35.346 22.1659 35.4565 22.0529L36.511 20.9732C36.7011 20.7786 36.5548 20.4518 36.283 20.4639L34.0816 20.5623C33.8098 20.5744 33.6933 20.913 33.9 21.0899L35.0468 22.0712Z" fill="#FFA259"/>
<defs>
<linearGradient id="paint0_linear_304_385" x1="24.1292" y1="8.31468" x2="24.1292" y2="28.1166" gradientUnits="userSpaceOnUse">
<stop stop-color="#FFE4CA"/>
<stop offset="1" stop-color="#FF7710"/>
</linearGradient>
<linearGradient id="paint1_linear_304_385" x1="25.3415" y1="21.6638" x2="25.3415" y2="38.9497" gradientUnits="userSpaceOnUse">
<stop stop-color="#FFE4CA"/>
<stop offset="1" stop-color="#FF7710"/>
</linearGradient>
<linearGradient id="paint2_linear_304_385" x1="34.8601" y1="4.35385" x2="34.8601" y2="21.4106" gradientUnits="userSpaceOnUse">
<stop stop-color="#FFE4CA"/>
<stop offset="1" stop-color="#FF7710"/>
</linearGradient>
<linearGradient id="paint3_linear_304_385" x1="13.2737" y1="4.34027" x2="13.2737" y2="21.421" gradientUnits="userSpaceOnUse">
<stop stop-color="#FFE4CA"/>
<stop offset="1" stop-color="#FF7710"/>
</linearGradient>
<linearGradient id="paint4_linear_304_385" x1="13.4249" y1="26.0655" x2="13.4249" y2="42.2863" gradientUnits="userSpaceOnUse">
<stop stop-color="#FFE4CA"/>
<stop offset="1" stop-color="#FF7710"/>
</linearGradient>
<linearGradient id="paint5_linear_304_385" x1="34.8078" y1="26.2089" x2="34.8078" y2="42.2924" gradientUnits="userSpaceOnUse">
<stop stop-color="#FFE4CA"/>
<stop offset="1" stop-color="#FF7710"/>
</linearGradient>
<linearGradient id="paint6_linear_304_385" x1="22.4959" y1="19.164" x2="22.4959" y2="38.052" gradientUnits="userSpaceOnUse">
<stop stop-color="#FFE4CA"/>
<stop offset="1" stop-color="#FF7710"/>
</linearGradient>
<linearGradient id="paint7_linear_304_385" x1="19.3829" y1="17.6757" x2="19.3829" y2="35.7919" gradientUnits="userSpaceOnUse">
<stop stop-color="#FFE4CA"/>
<stop offset="1" stop-color="#FF7710"/>
</linearGradient>
<linearGradient id="paint8_linear_304_385" x1="16.7827" y1="15.9938" x2="16.7827" y2="31.558" gradientUnits="userSpaceOnUse">
<stop stop-color="#FFE4CA"/>
<stop offset="1" stop-color="#FF7710"/>
</linearGradient>
<linearGradient id="paint9_linear_304_385" x1="24.0773" y1="3.59145" x2="24.0773" y2="8.07488" gradientUnits="userSpaceOnUse">
<stop stop-color="#FFE4CA"/>
<stop offset="1" stop-color="#FF7710"/>
</linearGradient>
<linearGradient id="paint10_linear_304_385" x1="24.0848" y1="39.455" x2="24.0848" y2="43.8959" gradientUnits="userSpaceOnUse">
<stop stop-color="#FFE4CA"/>
<stop offset="1" stop-color="#FF7710"/>
</linearGradient>
<linearGradient id="paint11_linear_304_385" x1="42.0023" y1="22.185" x2="42.0023" y2="26.5832" gradientUnits="userSpaceOnUse">
<stop stop-color="#FFE4CA"/>
<stop offset="1" stop-color="#FF7710"/>
</linearGradient>
<linearGradient id="paint12_linear_304_385" x1="6.01368" y1="22.159" x2="6.01368" y2="26.6006" gradientUnits="userSpaceOnUse">
<stop stop-color="#FFE4CA"/>
<stop offset="1" stop-color="#FF7710"/>
</linearGradient>
<linearGradient id="paint13_linear_304_385" x1="24.6253" y1="12.6957" x2="24.6253" y2="17.2405" gradientUnits="userSpaceOnUse">
<stop stop-color="#FFE4CA"/>
<stop offset="1" stop-color="#FF7710"/>
</linearGradient>
<linearGradient id="paint14_linear_304_385" x1="30.1321" y1="17.2247" x2="30.1321" y2="19.7637" gradientUnits="userSpaceOnUse">
<stop stop-color="#FFE4CA"/>
<stop offset="1" stop-color="#FF7710"/>
</linearGradient>
</defs>
</svg>
